<svg version="1.1" id="Layer_1" xmlns="http://www.w3.org/2000/svg" xmlns:xlink="http://www.w3.org/1999/xlink" x="0px" y="0px"
	 width="100%" viewBox="0 0 3544 1191" enable-background="new 0 0 3544 1191" xml:space="preserve">
<path fill="#FEFEFE" opacity="1.000000" stroke="none" 
	d="
M1832.000000,1194.000000 
	C1491.277222,1194.000000 1150.554565,1194.000000 808.929626,1193.448486 
	C808.043884,1192.529297 808.060364,1192.161865 808.654236,1191.468872 
	C810.698730,1188.921631 812.194458,1186.718140 813.628845,1184.475464 
	C912.121704,1030.483643 1010.682434,876.535095 1109.055298,722.466614 
	C1140.050659,673.922546 1170.694580,625.151550 1201.123901,576.250854 
	C1206.705933,567.280273 1211.401733,557.509583 1214.918335,547.547485 
	C1226.826294,513.814514 1217.984741,483.190887 1190.141479,460.826324 
	C1183.183472,455.237518 1175.421875,450.496277 1167.563232,446.223389 
	C1159.114014,441.629425 1150.294556,437.586121 1141.327881,434.095795 
	C1091.146729,414.562683 1040.870117,395.275421 990.634888,375.881470 
	C987.174622,374.545593 983.785461,373.025513 979.692078,371.309723 
	C1010.314819,353.850037 1219.195557,252.465042 1228.258057,251.086792 
	C1202.752808,294.107666 1177.745605,336.288605 1152.343140,379.136078 
	C1195.882690,395.858429 1238.578979,412.256897 1281.931885,428.907501 
	C1372.218262,287.308411 1462.163452,146.244568 1553.217285,3.442000 
	C1547.932129,5.192109 1544.541626,6.265564 1541.183960,7.433692 
	C1290.003418,94.817917 1038.819214,182.191589 787.683472,269.704254 
	C781.358093,271.908447 775.809387,272.027649 769.444946,269.802704 
	C535.674316,188.078461 301.853607,106.497536 68.036758,24.905531 
	C49.208637,18.335329 30.376110,11.776532 11.498372,5.351277 
	C9.143059,4.549620 6.208107,1.423965 3.603342,5.970792 
	C2.712652,5.989778 2.356326,5.994889 2.000000,6.000000 
	C2.000000,4.667272 2.000000,3.334543 2.000000,2.000907 
	C611.389404,2.000000 1220.778809,2.000000 1831.862793,2.640052 
	C1833.492065,7.274523 1833.370117,11.268939 1833.369873,15.263361 
	C1833.360596,210.790909 1833.361694,406.318451 1833.361694,601.846008 
	C1833.361694,795.374939 1833.369385,988.903931 1833.304810,1182.432861 
	C1833.303467,1186.288696 1832.453857,1190.144287 1832.000000,1194.000000 
z"/>
<path fill="#FFFFFF" opacity="1.000000" stroke="none" 
	d="
M2232.000000,1194.000000 
	C2112.622559,1194.000000 1993.245239,1194.000000 1872.682739,1193.093506 
	C1871.477661,1188.189453 1871.440552,1184.191772 1871.440430,1180.194092 
	C1871.437866,792.063110 1871.436035,403.932129 1871.461304,15.801155 
	C1871.461548,11.200758 1871.812622,6.600384 1872.000000,1.999999 
	C2270.043945,2.000000 2668.088135,2.000000 3067.361816,2.506410 
	C3068.492676,3.391041 3068.393799,3.769261 3067.729736,4.510431 
	C2930.954834,123.481735 2794.742188,242.087158 2658.536865,360.700806 
	C2625.615723,389.369812 2592.337646,417.642822 2559.904053,446.853607 
	C2515.954590,486.436432 2496.260742,536.556458 2500.584473,595.259033 
	C2504.114014,643.178894 2525.184326,683.046204 2560.831543,715.424133 
	C2664.686768,809.754822 2768.370850,904.274231 2872.121094,998.720398 
	C2940.877441,1061.310425 3009.643311,1123.889526 3078.336670,1186.548096 
	C3080.604004,1188.615967 3082.128906,1191.497681 3084.000000,1194.000000 
	C2904.622559,1194.000000 2725.245361,1194.000000 2544.783691,1193.073120 
	C2543.699219,1087.567627 2543.699219,982.989014 2543.699219,877.844849 
	C2439.727295,877.844849 2336.625000,877.844849 2232.588135,877.844849 
	C2232.588135,881.935791 2232.588135,885.526672 2232.588135,889.117554 
	C2232.588135,987.104126 2232.594482,1085.090698 2232.563477,1183.077271 
	C2232.562256,1186.718140 2232.196045,1190.359131 2232.000000,1194.000000 
M2543.674561,173.000137 
	C2543.578125,117.359848 2543.482910,61.719555 2543.361084,6.079352 
	C2543.360352,5.824309 2542.999268,5.555274 2542.778076,5.319399 
	C2542.550537,5.076852 2542.287842,4.867407 2542.175781,4.765762 
	C2439.240479,4.765762 2336.394775,4.765762 2233.242676,4.765762 
	C2233.242676,113.012260 2233.242676,220.741531 2233.242676,328.590210 
	C2336.998047,328.590210 2440.091553,328.590210 2543.674561,328.590210 
	C2543.674561,276.917755 2543.674561,225.958954 2543.674561,173.000137 
z"/>
<path fill="#FEFFFF" opacity="1.000000" stroke="none" 
	d="
M2.000000,6.925277 
	C2.356326,5.994889 2.712652,5.989778 4.263080,6.150260 
	C7.708546,9.599915 10.057742,12.821596 12.197171,16.177025 
	C97.936447,150.648361 183.656021,285.132263 269.383881,419.610870 
	C271.324829,422.655548 273.332153,425.657928 275.729370,429.323639 
	C318.812500,412.734772 361.530334,396.286591 405.072052,379.521149 
	C398.453125,368.296448 392.256836,357.761688 386.033813,347.242737 
	C379.593353,336.356262 373.120331,325.489105 366.673889,314.606171 
	C360.396942,304.009308 354.050629,293.452271 347.891388,282.787354 
	C341.757172,272.165771 334.879974,261.920563 329.553467,250.871811 
	C330.077393,250.468002 330.601349,250.064178 331.125275,249.660355 
	C413.118195,289.943726 495.111084,330.227081 578.101746,371.000641 
	C573.377441,372.946350 569.771057,374.506378 566.110840,375.927795 
	C519.635376,393.975800 473.019379,411.672150 426.739838,430.208832 
	C409.502899,437.112885 392.435760,444.907928 376.372498,454.171631 
	C348.500336,470.245605 334.875061,494.949921 338.194977,527.499084 
	C339.126404,536.631104 341.432617,546.019531 345.152954,554.380615 
	C351.217529,568.010010 358.106049,581.438477 366.127808,594.006531 
	C492.058441,791.306763 618.225159,988.456177 744.359741,1185.626221 
	C745.499451,1187.407715 746.939819,1188.996826 749.667664,1192.520020 
	C749.667664,1188.982544 749.669678,1187.793823 749.667358,1186.605103 
	C749.581848,1141.951294 749.569519,1097.296997 749.298157,1052.644409 
	C749.270569,1048.096436 748.106873,1043.429443 746.763184,1039.033936 
	C700.969971,889.234375 655.069397,739.467712 609.245117,589.677673 
	C601.165283,563.266418 605.270691,554.059753 630.008118,541.703430 
	C670.159302,521.647766 710.386719,501.742004 750.413574,481.441010 
	C769.782227,471.617554 788.443359,472.037170 807.685364,481.950470 
	C841.375854,499.307404 875.373413,516.068115 909.245300,533.072754 
	C918.159973,537.548157 927.308289,541.612244 935.954285,546.556152 
	C949.408325,554.249390 953.672302,564.171631 950.762146,579.239136 
	C949.943359,583.478394 948.953125,587.707092 947.695740,591.835327 
	C940.815613,614.423096 933.803528,636.970642 926.880981,659.545593 
	C887.977661,786.411987 849.079163,913.279846 810.233521,1040.163940 
	C809.173950,1043.624878 808.103760,1047.272827 808.094849,1050.836304 
	C807.978027,1097.822021 808.051147,1144.808228 808.076782,1191.794312 
	C808.060364,1192.161865 808.043884,1192.529297 808.013733,1193.448486 
	C539.447998,1194.000000 270.895996,1194.000000 2.000000,1194.000000 
	C2.000000,798.616943 2.000000,403.233734 2.000000,6.925277 
z"/>
<path fill="#010000" opacity="1.000000" stroke="none" 
	d="
M3084.937256,1194.000000 
	C3082.128906,1191.497681 3080.604004,1188.615967 3078.336670,1186.548096 
	C3009.643311,1123.889526 2940.877441,1061.310425 2872.121094,998.720398 
	C2768.370850,904.274231 2664.686768,809.754822 2560.831543,715.424133 
	C2525.184326,683.046204 2504.114014,643.178894 2500.584473,595.259033 
	C2496.260742,536.556458 2515.954590,486.436432 2559.904053,446.853607 
	C2592.337646,417.642822 2625.615723,389.369812 2658.536865,360.700806 
	C2794.742188,242.087158 2930.954834,123.481735 3068.646973,4.540260 
	C3074.120605,4.135781 3078.111572,4.002314 3082.102783,4.002036 
	C3230.863525,3.991653 3379.624268,4.004206 3528.385010,3.939747 
	C3532.615967,3.937914 3536.846191,3.134155 3540.844727,3.455410 
	C3538.488281,6.285246 3536.462891,8.477221 3534.225586,10.426175 
	C3455.352539,79.141342 3376.455078,147.828461 3297.570557,216.530655 
	C3160.149170,336.213287 3022.733398,455.902832 2885.320068,575.595032 
	C2882.687500,577.888062 2880.117188,580.252563 2877.253418,582.820862 
	C2885.990234,590.783508 2893.860107,597.963074 2901.737549,605.134216 
	C3086.514404,773.345398 3271.299805,941.547058 3456.060791,1109.775269 
	C3486.095947,1137.122925 3516.022949,1164.588745 3546.000000,1192.000000 
	C3545.668457,1192.666626 3545.372070,1193.887695 3545.000000,1193.911133 
	C3542.348877,1194.077881 3539.682373,1194.000000 3537.020752,1194.000000 
	C3386.638672,1194.000000 3236.256592,1194.000000 3084.937256,1194.000000 
z"/>
<path fill="#FFFFFF" opacity="1.000000" stroke="none" 
	d="
M3546.000000,1191.062744 
	C3516.022949,1164.588745 3486.095947,1137.122925 3456.060791,1109.775269 
	C3271.299805,941.547058 3086.514404,773.345398 2901.737549,605.134216 
	C2893.860107,597.963074 2885.990234,590.783508 2877.253418,582.820862 
	C2880.117188,580.252563 2882.687500,577.888062 2885.320068,575.595032 
	C3022.733398,455.902832 3160.149170,336.213287 3297.570557,216.530655 
	C3376.455078,147.828461 3455.352539,79.141342 3534.225586,10.426175 
	C3536.462891,8.477221 3538.488281,6.285246 3540.642090,3.192214 
	C3540.671631,2.177926 3540.000000,2.000000 3540.000000,2.000000 
	C3541.998535,2.000000 3543.997070,2.000000 3545.997803,2.000000 
	C3546.000000,398.041779 3546.000000,794.083557 3546.000000,1191.062744 
z"/>
<path fill="#010101" opacity="1.000000" stroke="none" 
	d="
M2232.937256,1194.000000 
	C2232.196045,1190.359131 2232.562256,1186.718140 2232.563477,1183.077271 
	C2232.594482,1085.090698 2232.588135,987.104126 2232.588135,889.117554 
	C2232.588135,885.526672 2232.588135,881.935791 2232.588135,877.844849 
	C2336.625000,877.844849 2439.727295,877.844849 2543.699219,877.844849 
	C2543.699219,982.989014 2543.699219,1087.567627 2543.849609,1193.073120 
	C2440.624756,1194.000000 2337.249756,1194.000000 2232.937256,1194.000000 
z"/>
<path fill="#050505" opacity="1.000000" stroke="none" 
	d="
M1871.064697,1.999999 
	C1871.812622,6.600384 1871.461548,11.200758 1871.461304,15.801155 
	C1871.436035,403.932129 1871.437866,792.063110 1871.440430,1180.194092 
	C1871.440552,1184.191772 1871.477661,1188.189453 1871.748779,1193.093506 
	C1859.290161,1194.000000 1846.580444,1194.000000 1832.935303,1194.000000 
	C1832.453857,1190.144287 1833.303467,1186.288696 1833.304810,1182.432861 
	C1833.369385,988.903931 1833.361694,795.374939 1833.361694,601.846008 
	C1833.361694,406.318451 1833.360596,210.790909 1833.369873,15.263361 
	C1833.370117,11.268939 1833.492065,7.274523 1832.778564,2.640052 
	C1844.709839,2.000000 1857.419556,2.000000 1871.064697,1.999999 
z"/>
<path fill="#545454" opacity="1.000000" stroke="none" 
	d="
M3539.062744,2.000000 
	C3540.000000,2.000000 3540.671631,2.177926 3540.874268,2.441123 
	C3536.846191,3.134155 3532.615967,3.937914 3528.385010,3.939747 
	C3379.624268,4.004206 3230.863525,3.991653 3082.102783,4.002036 
	C3078.111572,4.002314 3074.120605,4.135781 3069.211914,4.177310 
	C3068.393799,3.769261 3068.492676,3.391041 3068.295654,2.506410 
	C3224.708496,2.000000 3381.416992,2.000000 3539.062744,2.000000 
z"/>
<path fill="#010101" opacity="1.000000" stroke="none" 
	d="
M808.654175,1191.468872 
	C808.051147,1144.808228 807.978027,1097.822021 808.094849,1050.836304 
	C808.103760,1047.272827 809.173950,1043.624878 810.233521,1040.163940 
	C849.079163,913.279846 887.977661,786.411987 926.880981,659.545593 
	C933.803528,636.970642 940.815613,614.423096 947.695740,591.835327 
	C948.953125,587.707092 949.943359,583.478394 950.762146,579.239136 
	C953.672302,564.171631 949.408325,554.249390 935.954285,546.556152 
	C927.308289,541.612244 918.159973,537.548157 909.245300,533.072754 
	C875.373413,516.068115 841.375854,499.307404 807.685364,481.950470 
	C788.443359,472.037170 769.782227,471.617554 750.413574,481.441010 
	C710.386719,501.742004 670.159302,521.647766 630.008118,541.703430 
	C605.270691,554.059753 601.165283,563.266418 609.245117,589.677673 
	C655.069397,739.467712 700.969971,889.234375 746.763184,1039.033936 
	C748.106873,1043.429443 749.270569,1048.096436 749.298157,1052.644409 
	C749.569519,1097.296997 749.581848,1141.951294 749.667358,1186.605103 
	C749.669678,1187.793823 749.667664,1188.982544 749.667664,1192.520020 
	C746.939819,1188.996826 745.499451,1187.407715 744.359741,1185.626221 
	C618.225159,988.456177 492.058441,791.306763 366.127808,594.006531 
	C358.106049,581.438477 351.217529,568.010010 345.152954,554.380615 
	C341.432617,546.019531 339.126404,536.631104 338.194977,527.499084 
	C334.875061,494.949921 348.500336,470.245605 376.372498,454.171631 
	C392.435760,444.907928 409.502899,437.112885 426.739838,430.208832 
	C473.019379,411.672150 519.635376,393.975800 566.110840,375.927795 
	C569.771057,374.506378 573.377441,372.946350 578.101746,371.000641 
	C495.111084,330.227081 413.118195,289.943726 331.125275,249.660355 
	C330.601349,250.064178 330.077393,250.468002 329.553467,250.871811 
	C334.879974,261.920563 341.757172,272.165771 347.891388,282.787354 
	C354.050629,293.452271 360.396942,304.009308 366.673889,314.606171 
	C373.120331,325.489105 379.593353,336.356262 386.033813,347.242737 
	C392.256836,357.761688 398.453125,368.296448 405.072052,379.521149 
	C361.530334,396.286591 318.812500,412.734772 275.729370,429.323639 
	C273.332153,425.657928 271.324829,422.655548 269.383881,419.610870 
	C183.656021,285.132263 97.936447,150.648361 12.197171,16.177025 
	C10.057742,12.821596 7.708546,9.599915 4.797443,6.136386 
	C6.208107,1.423965 9.143059,4.549620 11.498372,5.351277 
	C30.376110,11.776532 49.208637,18.335329 68.036758,24.905531 
	C301.853607,106.497536 535.674316,188.078461 769.444946,269.802704 
	C775.809387,272.027649 781.358093,271.908447 787.683472,269.704254 
	C1038.819214,182.191589 1290.003418,94.817917 1541.183960,7.433692 
	C1544.541626,6.265564 1547.932129,5.192109 1553.217285,3.442000 
	C1462.163452,146.244568 1372.218262,287.308411 1281.931885,428.907501 
	C1238.578979,412.256897 1195.882690,395.858429 1152.343140,379.136078 
	C1177.745605,336.288605 1202.752808,294.107666 1228.258057,251.086792 
	C1219.195557,252.465042 1010.314819,353.850037 979.692078,371.309723 
	C983.785461,373.025513 987.174622,374.545593 990.634888,375.881470 
	C1040.870117,395.275421 1091.146729,414.562683 1141.327881,434.095795 
	C1150.294556,437.586121 1159.114014,441.629425 1167.563232,446.223389 
	C1175.421875,450.496277 1183.183472,455.237518 1190.141479,460.826324 
	C1217.984741,483.190887 1226.826294,513.814514 1214.918335,547.547485 
	C1211.401733,557.509583 1206.705933,567.280273 1201.123901,576.250854 
	C1170.694580,625.151550 1140.050659,673.922546 1109.055298,722.466614 
	C1010.682434,876.535095 912.121704,1030.483643 813.628845,1184.475464 
	C812.194458,1186.718140 810.698730,1188.921631 808.654175,1191.468872 
z"/>
<path fill="#020202" opacity="1.000000" stroke="none" 
	d="
M2543.674561,174.000153 
	C2543.674561,225.958954 2543.674561,276.917755 2543.674561,328.590210 
	C2440.091553,328.590210 2336.998047,328.590210 2233.242676,328.590210 
	C2233.242676,220.741531 2233.242676,113.012260 2233.242676,4.765762 
	C2336.394775,4.765762 2439.240479,4.765762 2542.175781,4.765762 
	C2542.287842,4.867407 2542.550537,5.076852 2542.778076,5.319399 
	C2542.999268,5.555274 2543.360352,5.824309 2543.361084,6.079352 
	C2543.482910,61.719555 2543.578125,117.359848 2543.674561,174.000153 
z"/>
</svg>