<svg width="100" height="40" fill="none" xmlns="http://www.w3.org/2000/svg"><g clip-path="url(#a)"><path fill="#fff" d="M0 0h100v40H0z"/><g clip-path="url(#b)" fill-rule="evenodd" clip-rule="evenodd"><path d="M16.33 29.346v1.331h-1.248v-5.104h4.737a1.854 1.854 0 0 1 1.76 1.893 1.9 1.9 0 0 1-1.054 1.727l1.104 1.498h-1.578l-.993-1.331-2.728-.014Zm63.661 1.331a1.31 1.31 0 0 1-.928-.417 1.428 1.428 0 0 1-.39-.989v-2.32c0-.366.14-.724.39-.993.241-.255.575-.403.928-.413h5.16v1.323h-4.673a.465.465 0 0 0-.352.158.523.523 0 0 0-.149.37v1.319c0 .171.065.338.181.464.111.12.27.19.436.19h3.286v-1.02h1.248v2.32l-5.137.008Zm-30.626 0H44.26a1.31 1.31 0 0 1-.928-.417 1.429 1.429 0 0 1-.39-.989v-2.32c0-.352.126-.696.358-.965.24-.26.575-.408.928-.413h5.155v1.295H44.73a.455.455 0 0 0-.348.158.523.523 0 0 0-.149.37v1.319c0 .171.065.338.181.464.112.12.27.19.432.19h4.557v1.313h-.037v-.005Zm-16.882-3.062-2.265 3.058h-1.642c.802-1.086 1.587-2.255 2.445-3.3 1.123-1.392 1.476-1.814 2.585-1.814h2.255v5.105h-1.285V26.91h-.891a1.146 1.146 0 0 0-.678.143c-.204.158-.38.348-.524.562Zm25.452 3.058H56.45v-5.104h1.485v5.104Zm11.708 0-3.285-3.3v3.31h-1.392v-5.105h1.55l3.712 3.772v-3.795h1.392v5.104h-1.963l-.014.014Zm-53.313-3.81v1.17h3.494a.579.579 0 0 0 .506-.585.567.567 0 0 0-.552-.585H16.33Z" fill="#00BE26"/><path d="M24.422 39.276v-2.455h1.745v.464h-1.225v.58h1.072v.427h-1.072V39.3l-.52-.023Zm3.935 0-.37-.367v-1.716l.37-.372h1.341l.376.372v1.717l-.376.366h-1.34Zm.284-.418h.756l.134-.134v-1.355l-.139-.13h-.752l-.134.13v1.355l.134.134Zm3.438.418v-2.455h1.554l.372.372v.858l-.311.306.394.928h-.547l-.353-.867h-.59v.867l-.519-.009Zm.52-1.29h.76l.135-.13v-.464l-.13-.13H32.6v.724Zm3.466 1.29v-2.455h.594l.668 1.638.673-1.638h.566v2.455h-.515V37.75l-.603 1.476h-.279l-.603-1.476v1.527h-.5Zm4.905 0-.367-.367v-2.088h.52v1.903l.135.134H42l.135-.13v-1.907h.52v2.089l-.372.366H40.97Zm3.745 0v-2.455h.52v2.014h1.169v.464l-1.69-.023Zm3.406 0 .76-2.455h.818l.76 2.455h-.552l-.153-.543h-.928l-.153.543h-.552Zm.821-.965h.71l-.292-1.058h-.102l-.297 1.058h-.019Zm5.768.965v-2.455h1.773v.464H55.22v.53h1.136v.426h-1.136v.617h1.252v.465l-1.763-.047Zm6.645 0v-2.014h-.687v-.464h1.894v.464h-.687v2.014h-.52Zm3.086 0v-2.455h1.772v.464h-1.248v.53h1.137v.426h-1.137v.617h1.253v.465l-1.777-.047Zm3.55 0 .76-2.455h.817l.762 2.455h-.553l-.171-.543h-.928l-.153.543h-.534Zm.821-.965h.692l-.293-1.058h-.102l-.297 1.058Zm3.374.965v-2.455h.57l.669 1.638.672-1.638h.571v2.455h-.506V37.75l-.603 1.476h-.241l-.603-1.476v1.527h-.53Z" fill="#383B43"/><path d="M82.993 37.471h16.079v-9.36h1.16v10.52H82.993v-1.16Zm-65.754 1.16H0v-10.52h1.16v9.36H17.24v1.16Z" fill="#00BE26"/><path d="M81.67 36.102A1.949 1.949 0 1 1 81.672 40a1.949 1.949 0 0 1 0-3.897Zm0 .928c-.552.005-.997.46-.992 1.012a1.001 1.001 0 0 0 2.005.01c0-.553-.45-1.003-1.003-1.003h-.01v-.019ZM18.561 36.102a1.949 1.949 0 1 0 0 3.897 1.949 1.949 0 0 0 0-3.897Zm0 .928c.552.005.998.46.993 1.012a1.001 1.001 0 0 1-2.005.01 1 1 0 0 1 .994-1.003h.018v-.019Z" fill="#00A621"/><path d="M81.67 36.102A1.949 1.949 0 1 1 81.671 40a1.949 1.949 0 0 1 0-3.897Zm-63.109 0a1.949 1.949 0 1 0 0 3.897 1.949 1.949 0 0 0 0-3.897Zm0 .928c.552.005.998.46.993 1.012a1.001 1.001 0 0 1-2.005.01 1 1 0 0 1 .994-1.003h.018v-.019Zm63.11 0c-.553.005-.998.46-.994 1.012a1.001 1.001 0 0 0 2.005.01c0-.553-.45-1.003-1.002-1.003h-.01v-.019Z" fill="#00BE26"/><path d="M31.6 16.023c-2.069 2.32-6.825 1.518-10.43.464-2.108-.603-2.265.418-1.773 1.48.492 1.063 2.139 2.743 5.155 2.998a7.145 7.145 0 0 0 4.64-1.165c.093-.07.038-.18-.064-.125-2.135 1.095-5.973.66-6.826-.817-.116-.2-.038-.329.547-.194 4.227.974 7.28-.056 8.85-2.636v-.06a.08.08 0 0 0-.061.032l-.037.023ZM17.93 6.497c-.097.07-.037.18.065.13 2.13-1.105 5.944-.673 6.798.798.112.2.033.329-.547.194-4.232-.974-7.286.056-8.854 2.636-.037.065.028.093.084.028 2.07-2.32 6.82-1.517 10.426-.487 2.112.603 2.265-.418 1.773-1.48-.492-1.063-2.153-2.748-5.15-2.994-.21 0-.418-.027-.623-.027a6.96 6.96 0 0 0-3.972 1.202Zm5.606-2.06a8.427 8.427 0 0 1 8.445 8.31c0 1.703-1.42 2.965-4.218 2.965-3.434 0-6.96-1.554-9.174-1.554a1.275 1.275 0 0 0-1.308 1.239v.111c0 2.64 2.784 5.791 6.255 6.2.134 0 .134.167 0 .167a8.44 8.44 0 0 1-8.446-8.311c0-1.703 1.425-2.965 4.218-2.965 3.416 0 6.891 1.554 9.174 1.554a1.275 1.275 0 0 0 1.309-1.239v-.111c0-2.64-2.742-5.75-6.255-6.2-.144-.018-.14-.167 0-.167ZM85.142 13.569c0-.279-.023-.553-.065-.827a2.236 2.236 0 0 0-.274-.78 1.58 1.58 0 0 0-.58-.58 1.95 1.95 0 0 0-.993-.222 3.37 3.37 0 0 0-1.476.306 2.32 2.32 0 0 0-.988.878V11.28h-1.74v6.353h1.93V13.99a1.684 1.684 0 0 1 .58-.817c.12-.097.255-.176.4-.237.13-.055.268-.083.412-.088a.752.752 0 0 1 .622.288 1.4 1.4 0 0 1 .237.928v3.569h1.935v-4.066Zm-11.777.222c.065-.19.167-.371.297-.529.13-.144.287-.26.463-.338.177-.08.367-.117.562-.117.39-.004.756.168 1.007.464.278.34.418.766.399 1.202 0 .228-.037.455-.111.673-.065.19-.167.371-.297.525-.121.144-.27.26-.441.338a1.218 1.218 0 0 1-.557.121 1.29 1.29 0 0 1-1.012-.464 1.758 1.758 0 0 1-.399-1.207c0-.227.033-.454.107-.668h-.018Zm2.751 3.712a3.097 3.097 0 0 0 1.067-.719 2.97 2.97 0 0 0 .66-1.053 3.52 3.52 0 0 0 0-2.501 3.166 3.166 0 0 0-.664-1.054 3.224 3.224 0 0 0-1.067-.723 3.558 3.558 0 0 0-1.439-.274 3.58 3.58 0 0 0-1.443.274 3.226 3.226 0 0 0-1.067.723 3.05 3.05 0 0 0-.664 1.054 3.622 3.622 0 0 0 0 2.5c.149.395.371.753.664 1.054.301.311.663.557 1.067.72a4.082 4.082 0 0 0 2.89 0h-.004Zm-5.8-8.686H68.38v1.754h1.935V8.817Zm0 2.478H68.38v6.339h1.935v-6.34Zm-3.564 5.912c.46-.358.72-.915.7-1.5a1.665 1.665 0 0 0-.134-.686 1.38 1.38 0 0 0-.422-.515 3.116 3.116 0 0 0-.757-.404c-.31-.12-.691-.241-1.141-.366a3.89 3.89 0 0 1-.877-.288.463.463 0 0 1 0-.803c.162-.093.348-.134.534-.13.283 0 .561.06.82.172.344.144.664.325.966.543l.752-1.16a3.372 3.372 0 0 0-1.202-.701c-.432-.13-.882-.2-1.337-.195-.343 0-.686.051-1.011.158a2.647 2.647 0 0 0-.803.436c-.469.38-.738.956-.724 1.56-.004.213.033.426.12.626.094.185.228.348.4.464.223.158.464.283.72.376.292.11.654.227 1.08.348.32.07.631.18.928.32a.464.464 0 0 1 .26.408.43.43 0 0 1-.209.385 1.093 1.093 0 0 1-.58.135 2.858 2.858 0 0 1-1.057-.218 5.79 5.79 0 0 1-1.128-.617l-.691 1.183c.385.343.84.603 1.331.756.515.172 1.054.26 1.596.26a2.958 2.958 0 0 0 1.898-.557l-.032.01Zm-5.73-8.39h-1.936v1.754h1.935V8.817Zm0 2.478h-1.936v6.339h1.935v-6.34Zm-4.91 6.339 2.236-6.349h-1.805l-1.392 4.803-1.392-4.803h-1.995l2.24 6.349h2.108Zm-4.887-4.06a5.45 5.45 0 0 0-.065-.827 2.439 2.439 0 0 0-.273-.78 1.58 1.58 0 0 0-.58-.58 1.95 1.95 0 0 0-.994-.222 3.37 3.37 0 0 0-1.475.306c-.4.19-.738.497-.97.873V11.28h-1.763v6.353h1.935V13.99c.055-.167.134-.32.236-.464.098-.135.218-.25.348-.353.121-.097.25-.176.395-.237.13-.055.269-.083.413-.088a.752.752 0 0 1 .622.288c.185.274.269.599.236.928v3.569h1.935v-4.066.005Zm-11.22 2.324v-1.833h3.383V12.46h-3.383v-1.671h3.94v-1.74h-5.922v8.59h6.033v-1.746h-4.051v.005Z" fill="#383B43"/><path d="M99.072 10.52V1.16H1.16v9.36H0V0h100.232v10.52h-1.16Z" fill="#00BE26"/></g></g><defs><clipPath id="a"><path fill="#fff" d="M0 0h100v40H0z"/></clipPath><clipPath id="b"><path fill="#fff" d="M0 0h100.232v40H0z"/></clipPath></defs></svg>