<svg width="100" height="40" fill="none" xmlns="http://www.w3.org/2000/svg"><g clip-path="url(#a)"><path fill="#fff" d="M0 0h100v40H0z"/><g clip-path="url(#b)"><path d="M93.523 14.524h4.478c1.017 0 1.847.795 1.847 1.767v4.047h-6.696a1.104 1.104 0 0 1-1.125-1.075v-1.406a1.026 1.026 0 0 1 1.044-1h3.716l-.392.817h-2.734a.243.243 0 0 0-.252.217v1.105a.241.241 0 0 0 .252.216h4.74v-2.653c0-.516-.46-.907-.974-.907H92.98l.543-1.128ZM66.71 13.257v-.86h-1.448v1.678l1.448-.818Zm-1.448 1.635 1.448-.817v6.266h-1.448v-5.45ZM74 14.524c1.016 0 1.847.795 1.847 1.767v4.047h-1.443v-3.786c0-.515-.462-.907-.975-.907h-3.476v4.687h-1.446v-5.808h5.497m18.513 0h-3.634c-1.016 0-1.849.795-1.849 1.767v4.047h1.457v-3.786c0-.515.461-.907.976-.907h2.506l.544-1.121Zm-48.575 5.815h1.447V16.29c0-.972-.832-1.767-1.847-1.767h-9.482v5.813h1.447v-4.47a.242.242 0 0 1 .252-.215h2.991a.242.242 0 0 1 .252.215v4.471h1.446v-4.47a.241.241 0 0 1 .252-.216h2.267c.513 0 .975.391.975.907v3.78Zm12.061-7.929v7.928h1.448V12.41h-1.448Zm6.017 7.928h1.448v-4.047c0-.972-.832-1.767-1.849-1.767h-3.072L58 15.65h3.046c.513 0 .974.392.974.908v3.78Zm22.946-7.928v7.928h-6.527a1.104 1.104 0 0 1-1.126-1.075v-2.97c0-.973.832-1.768 1.849-1.768h3.715l-.548 1.127h-2.597c-.513 0-.974.391-.974.907v2.437a.241.241 0 0 0 .252.216h4.511V12.41h1.445ZM48.16 14.524h4.479c1.016 0 1.847.795 1.847 1.767v4.047H47.79a1.103 1.103 0 0 1-1.124-1.075v-1.406a1.028 1.028 0 0 1 1.044-1h3.717l-.392.817H48.3a.244.244 0 0 0-.253.217v1.105a.243.243 0 0 0 .253.216h4.74v-2.653c0-.516-.461-.907-.974-.907h-4.447l.542-1.128Z" fill="#DD052B"/><path d="m27.939 10.75-.196.19-.578.486-.58.487-.58.485-.58.486-.58.486-.579.487-.58.485-.582.487-.58.486-.58.487-.581.487-.581.487-.581.49-.581.486-.584.483-.582.487-.581.487-.58.487-.583.487-.581.487-.581.487-.5.418c0 1.107.002 2.215.006 3.323 1.536 1.37 3.084 2.746 4.646 4.129h2.393a446.78 446.78 0 0 0 1.522-4.402l.066-.199.068-.198.067-.199.068-.198.066-.2.067-.198.067-.199.066-.2.067-.198.066-.198.067-.2.065-.199.067-.2.065-.199.066-.198.066-.2.065-.2.065-.198.066-.2.064-.2.065-.2.065-.2.064-.198.137-.423.13-.423.131-.423.13-.423.131-.424.131-.423.13-.423.131-.424.13-.425.131-.423.13-.424.131-.424.13-.426.131-.424.13-.425.131-.425.123-.424.123-.426.121-.426.12-.424.12-.425c.037-.131.074-.262.109-.392m-.516.815-.102.355-.11.383-.109.385-.11.384-.113.384-.113.383-.113.391-.115.383-.115.384-.115.384-.116.382-.117.383-.118.383-.119.383-.119.383-.118.382-.12.383-.122.382-.12.383-.123.38-.121.383-.124.383-.064.198-.065.2-.064.2-.066.2-.065.198-.065.2-.065.198-.066.2-.065.198-.065.2-.067.198-.065.2-.067.199-.066.198-.067.2-.066.198-.067.199-.067.198-.066.2-.068.198-.067.199-.067.198-.067.199-.065.19-.064.19-.066.19-.064.19-.066.191-.066.19-.063.19-.066.19-.065.19-.065.19-.067.19-.065.19-.065.19-.067.19-.065.189-.067.189-.065.19-.067.19-.066.19-.066.189-.066.189-.067.19-.014.04h-2.089a2504.667 2504.667 0 0 1-4.474-3.977l-.01-3.08.464-.392.546-.456.547-.459.546-.457.547-.457.546-.457.547-.458.545-.457.546-.457.546-.458.545-.457.546-.457.546-.458.547-.456.544-.458.546-.457.544-.457.546-.455.544-.457.545-.457.544-.457.545-.457.172-.144" fill="#fff"/><path d="M27.771 10.6 14.898 21.45l.007 3.524.054.049c1.55 1.392 3.114 2.79 4.69 4.194l.045.04h2.591l.038-.108a408.58 408.58 0 0 0 1.537-4.472l2.22-6.805 1.044-3.448.993-3.457.11-.391.158-.57-.614.593Zm-1.616 4.968-1.333 4.272-2.965 8.823h-1.933a2588.578 2588.578 0 0 1-4.413-3.956l-.006-2.985 11.75-9.907-1.1 3.753ZM.001 10.033l.51 1.834 1.007 3.456 1.334 4.308 1.673 5.076c.47 1.4.988 2.906 1.536 4.473l.037.108H8.69l.045-.04c1.576-1.407 3.14-2.805 4.69-4.195l.053-.048.007-3.525L.628 10.64 0 10.033Zm12.883 11.725v2.986a2854.9 2854.9 0 0 0-4.423 3.951H6.527l-1.566-4.578-2.729-8.515-1.1-3.752 11.752 9.908Z" fill="#DD052B"/><path d="M99.834 24.1h-.63l-.844 2.061c-.091.22-.181.444-.268.663h-.009l-.13-.334-.13-.329-.85-2.061h-.62v3.183h.357v-2.899h.009c.04.1.077.196.12.297l1.084 2.602h.363l1.083-2.635c.049-.13.052-.13.072-.178a1.07 1.07 0 0 0 .043-.118h.01v2.931h.356l-.016-3.183Zm-6.93 2.22h-1.403l.696-1.934.707 1.933Zm.105.285.248.674h.377l-1.188-3.183h-.507l-1.164 3.183h.381l.244-.674h1.609Zm-6.493-2.2h1.686v-.31H86.16v3.184h2.042v-.311h-1.686v-1.184h1.614v-.294h-1.614v-1.085Zm-4.095.024h1.031v-.333h-2.424v.333h1.036v2.85h.357v-2.85Zm-8.03-.02h1.684v-.31h-2.04v3.184h2.042v-.311h-1.686v-1.184h1.613v-.298H74.39v-1.08Zm-6.186 1.914h-1.401l.696-1.933.705 1.933Zm.104.286.248.674h.378l-1.19-3.183h-.505l-1.164 3.183h.38l.245-.674h1.608Zm-6.3-2.51h-.358v3.184h1.995v-.335H62.01L62.01 24.1Zm-3.69 0v2.23c0 .605-.095.677-.945.677-.512 0-.697-.049-.792-.21-.049-.081-.068-.215-.068-.468V24.1h-.358v2.228c0 .559.11.773.473.906.162.063.34.081.763.081.703 0 .936-.061 1.122-.284.124-.158.163-.322.163-.703V24.1h-.358Zm-5.14 0h-.63l-.846 2.062c-.09.22-.182.444-.268.663h-.009l-.13-.334-.131-.329-.85-2.061h-.62v3.183h.358v-2.899h.009c.038.1.077.196.119.297l1.083 2.602h.363l1.085-2.635c.047-.13.052-.13.07-.178.019-.047.03-.071.044-.118h.01v2.931h.358l-.016-3.183Zm-8.493 1.595v-1.285h1.16c.254 0 .412.052.483.157.072.104.085.23.085.559 0 .43-.167.569-.692.569h-1.036Zm-.357 1.589h.357v-1.28h1.084c.252 0 .339.018.448.105.11.086.154.21.154.449v.726h.357v-.807c0-.392-.167-.588-.505-.616.424-.072.548-.262.548-.841 0-.673-.248-.914-.931-.914h-1.51l-.002 3.178Zm-4.25-2.908c.654 0 .793.043.899.273.086.19.086.19.086 1.45 0 .417-.043.611-.163.755-.11.124-.268.153-.849.153-.652 0-.792-.043-.898-.272-.086-.192-.086-.192-.086-1.452 0-.415.043-.61.163-.754.11-.124.261-.153.849-.153Zm-.014-.31a4.7 4.7 0 0 0-.64.035.762.762 0 0 0-.557.366c-.13.243-.158.43-.158 1.093 0 .74 0 .845.058 1.094a.719.719 0 0 0 .424.558c.206.086.358.104.914.104.467 0 .63-.018.831-.104a.704.704 0 0 0 .425-.558c.052-.244.057-.354.057-1.098.006-.209 0-.418-.02-.626-.057-.41-.2-.644-.472-.759-.185-.08-.377-.104-.864-.104m-5.642.343h1.6v-.31h-1.959v3.184h.358v-1.467h1.551v-.299h-1.544l-.005-1.108Z" fill="#1D1D1B"/></g></g><defs><clipPath id="a"><path fill="#fff" d="M0 0h100v40H0z"/></clipPath><clipPath id="b"><path fill="#fff" transform="translate(0 10)" d="M0 0h100v19.292H0z"/></clipPath></defs></svg>