<svg width="100" height="40" viewBox="0 0 100 40" fill="none" xmlns="http://www.w3.org/2000/svg">
<g clip-path="url(#clip0_456_4107)">
<path d="M40.5663 33.2443C40.7854 32.9645 40.9414 32.5614 41.0045 32.0952V31.5058C41.0045 31.2885 40.9395 31.0087 40.7854 30.6676C40.6425 30.3635 40.4277 30.098 40.1593 29.8938C39.761 29.5985 39.2789 29.4355 38.7817 29.4282H34.2119V37.8388H35.2138V34.1445H37.9996C38.1875 34.4237 38.6881 35.3239 40.0651 37.6834L40.1905 37.9323L41.1007 37.4977L39.1601 34.1136C39.7211 34.0201 40.1905 33.7099 40.5663 33.2443ZM35.245 30.3877H38.7817C39.0326 30.3877 39.283 30.4812 39.5619 30.6676C39.8746 30.9777 40.0313 31.3195 40.0313 31.7541C40.0313 32.1262 39.9064 32.406 39.6555 32.7162C39.4682 32.9961 39.0613 33.1199 38.4664 33.1199H35.2138V30.3877H35.245Z" fill="black"/>
<path d="M50.9894 29.984C50.4866 29.6794 49.9178 29.4986 49.3302 29.4565C48.736 29.4875 48.5793 29.4875 48.485 29.521C47.7049 29.6764 47.1081 29.9866 46.7011 30.3903C46.0438 31.0422 45.6992 31.9114 45.6992 32.9361V37.8388H46.7355V34.1754H51.4932V37.8388H52.4951V32.7446C52.4918 31.5677 51.9912 30.6366 50.9894 29.984ZM51.4587 32.7162V33.1818H46.7011V32.9316C46.7011 32.2487 46.889 31.6896 47.2959 31.255C47.7653 30.7275 48.3602 30.4812 49.1742 30.4812C49.706 30.4812 50.238 30.6673 50.7703 31.0396C51.2397 31.5677 51.4587 32.0933 51.4587 32.7162Z" fill="black"/>
<path d="M59.722 29.7667C58.8118 30.1704 58.1253 30.8223 57.6247 31.7231C57.3113 32.406 57.1553 33.058 57.1553 33.6164C57.1553 34.0826 57.2489 34.6101 57.468 35.2285C57.5935 35.5702 57.8438 35.9733 58.1877 36.4085C59.0979 37.3706 60.1602 37.8362 61.3181 37.8362H63.9472V36.8457H61.6308C60.9735 36.8457 60.6608 36.7813 60.5353 36.7213L60.4703 36.6903C60.1257 36.6258 59.7506 36.4111 59.3124 36.0693C58.5609 35.3557 58.1851 34.5486 58.1851 33.648C58.1802 32.9899 58.3887 32.3476 58.78 31.816C59.4997 30.8849 60.3767 30.4502 61.4722 30.4502H63.9758V29.4256H61.5346C60.9116 29.3947 60.2902 29.5117 59.722 29.7667Z" fill="black"/>
<path d="M70.1142 29.394H69.1123V37.8072H70.1142V29.394Z" fill="black"/>
<path d="M79.9933 35.8211L79.7111 35.4174C76.2999 30.3567 75.7986 29.6429 75.705 29.5185L75.6108 29.4256H74.7344V37.8388H75.7362V31.4123L80.1181 37.8388H80.9633V29.4256H79.9621V35.8211H79.9933Z" fill="black"/>
<path d="M87.752 31.8779C87.9321 31.6353 88.131 31.407 88.3468 31.195C88.9347 30.6836 89.6935 30.4078 90.4754 30.4212H92.9166V29.3637H90.4754C90.0206 29.3687 89.5684 29.4311 89.1296 29.5494C88.0343 29.9531 87.2204 30.6052 86.6877 31.5058C86.6698 31.5735 86.6379 31.6368 86.5941 31.6915H86.5629L86.4978 31.8469C86.2469 32.5298 86.1221 33.027 86.1221 33.4307C86.1221 34.5482 86.466 35.5103 87.1551 36.2867C87.3112 36.5349 87.6245 36.7832 88.0939 37.1249C88.8448 37.5596 89.534 37.7769 90.1282 37.7769L90.8485 37.7459H90.8797C91.2555 37.6814 91.5994 37.6215 91.9128 37.4977V37.7769H92.914V33.8653H90.4435V34.8583H91.9148V36.3795C91.4135 36.6594 90.9129 36.8141 90.3811 36.8141L89.7862 36.7213C89.3545 36.6083 88.9427 36.4304 88.5653 36.1938L88.2526 35.9449C87.8768 35.6038 87.5953 35.1711 87.3762 34.7036C87.2507 34.2374 87.1571 33.8653 87.1571 33.6164L87.1883 33.2753C87.2514 32.8716 87.4392 32.3751 87.752 31.8779Z" fill="black"/>
<path d="M25.346 31.7947C25.0684 31.6109 24.822 31.4123 24.56 31.275C24.1721 31.068 23.7339 30.9718 23.2942 30.9971C22.6427 31.0222 22.023 31.2832 21.5525 31.7309C21.1554 32.0846 20.8851 32.5567 20.7821 33.076C20.67 33.5578 20.6964 34.0611 20.8582 34.5288C21.02 34.9964 21.3109 35.4097 21.6976 35.7217C22.0844 36.0336 22.5516 36.2317 23.0462 36.2935C23.5408 36.3553 24.0429 36.2783 24.4956 36.0713C24.5879 36.0255 24.5879 35.9797 24.5879 35.8881V33.6744H26.1912V36.8535C26.1922 36.8914 26.1845 36.929 26.1685 36.9635C26.1524 36.9979 26.1286 37.0283 26.0989 37.0521C25.5313 37.5142 24.8509 37.8198 24.1263 37.9381C23.3038 38.0801 22.4574 37.9792 21.6922 37.6479C21.0603 37.39 20.5363 36.9753 20.0741 36.4711C19.9308 36.3003 19.7971 36.1219 19.6736 35.9365C19.5657 36.1809 19.4577 36.4253 19.3342 36.6697C18.9799 37.281 18.4409 37.6324 17.7628 37.8162C17.571 37.8603 17.3746 37.8819 17.1777 37.8807H11.753V31.9933C11.753 31.5349 11.5372 31.2292 11.1516 31.1067C10.6127 30.9384 10.0425 31.275 10.0425 31.9166C10.0269 33.8427 10.0425 35.7527 10.0425 37.6789V37.8775H8.37752V31.9933C8.37752 31.4581 7.96144 31.0306 7.42248 31.0764C7.08311 31.1067 6.72879 31.4433 6.69823 31.7792C6.68263 31.9933 6.66702 32.2222 6.66702 32.4363V37.8923H5.00398V37.7092C5.00398 35.7527 4.98838 33.7815 5.01894 31.825C5.03454 30.8926 5.49678 30.2052 6.31335 29.7312C6.67819 29.5201 7.09303 29.4088 7.51545 29.4088C8.10057 29.4088 8.64018 29.5771 9.08682 29.9595C9.19474 30.0511 9.2565 30.0511 9.36443 29.9595C9.74051 29.6533 10.2039 29.4715 10.6894 29.4398C11.1686 29.3986 11.6497 29.4939 12.0761 29.7145C12.5694 29.9636 12.9612 30.3734 13.1859 30.8752C13.1948 30.8829 13.2004 30.8938 13.2015 30.9055C13.3862 30.6914 13.5558 30.447 13.771 30.2329C14.133 29.8539 14.6194 29.6154 15.1428 29.5604C15.2859 29.5429 15.4297 29.5328 15.5738 29.5301H19.3492V31.1957H15.5894C15.1428 31.1957 14.7573 31.4407 14.665 31.8992C14.5882 32.2964 14.8502 32.7549 15.2657 32.8619C15.3662 32.8877 15.4702 32.8979 15.5738 32.8922H17.2694C17.8389 32.9077 18.348 33.076 18.779 33.4423C18.8713 33.519 18.9487 33.5803 19.0391 33.6564C19.1931 31.6084 20.2093 30.1871 22.213 29.5604C23.6771 29.1019 25.0333 29.4533 26.2503 30.3986C25.9218 30.8456 25.618 31.31 25.3401 31.7896M13.4167 36.1964C13.4479 36.2112 13.4479 36.2112 13.4629 36.2112H17.1153C17.2517 36.2155 17.3871 36.1875 17.5103 36.1293C17.6335 36.0712 17.7409 35.9848 17.8236 35.8771C17.9063 35.7695 17.9619 35.6438 17.9857 35.5106C18.0095 35.3773 18.0009 35.2404 17.9605 35.1111C17.8682 34.7745 17.4982 34.5146 17.1153 34.5146H15.2949C14.9045 34.5138 14.5234 34.3968 14.2008 34.1787C13.9082 33.9801 13.6462 33.7505 13.3998 33.5519V36.1957L13.4167 36.1964Z" fill="black"/>
<path d="M90.2634 10.8646H88.7031C88.7402 10.7911 88.7766 10.7163 88.8136 10.6428C89.0685 10.1269 89.3338 9.96245 89.9189 9.96245H90.7159L90.2693 10.8652" fill="black"/>
<path d="M76.017 13.736C75.7706 14.1874 75.4806 14.357 74.9468 14.3564H74.064L75.0164 12.6056C75.2576 12.1626 75.558 11.9898 76.0852 11.9898H76.9668L76.0144 13.736M40.6081 13.736C40.3611 14.1874 40.0711 14.357 39.5373 14.3564H38.6571C38.9756 13.7734 39.294 13.1901 39.6121 12.6063C39.854 12.1633 40.1537 11.9905 40.6816 11.9905H41.5632L40.6107 13.7367M56.8445 12.4032C57.0025 11.9518 57.3646 11.9112 57.6969 11.9112H59.4821C59.4414 12.0328 59.4002 12.1543 59.3586 12.2755C59.2143 12.7024 58.8866 12.7378 58.5908 12.7378H56.7282C56.7663 12.6265 56.8051 12.5149 56.8445 12.4032ZM88.5762 14.3519C89.0556 13.3859 89.5345 12.4197 90.013 11.4533H88.4527L87.2122 13.9553C87.0731 14.2364 86.882 14.3519 86.5537 14.3525H82.7556C83.267 13.3208 83.7791 12.2875 84.2919 11.2528C84.5084 10.8162 84.5896 10.7853 85.0961 10.7853H85.5512C85.9946 10.7853 86.2013 10.666 86.3788 10.312C86.4497 10.1688 86.5199 10.0257 86.5907 9.88314H84.9712C85.204 9.41456 85.4363 8.94555 85.6682 8.4761H84.6468C84.2015 8.4761 83.9928 8.59475 83.8192 8.94555L83.355 9.88314H82.5046C82.356 10.1841 82.2071 10.485 82.058 10.7859H82.9084C82.7335 11.138 81.5112 13.6045 81.337 13.9572C81.1972 14.2384 81.0067 14.3532 80.6791 14.3538H77.3042L79.0986 11.0651H77.8594C77.5708 11.0651 77.446 11.1599 77.2659 11.3766C77.2659 11.1399 77.1794 11.0651 76.9525 11.0651H76.0891C74.679 11.0651 73.891 11.5023 73.2786 12.625C73.0355 13.0721 72.7921 13.5183 72.5485 13.9637C72.3957 14.2435 72.2059 14.3577 71.8919 14.3577H69.7178C68.9299 14.3577 68.6217 14.2442 68.5346 13.8302C68.441 13.384 68.6406 13.0216 69.6944 12.3206L70.2912 11.9234C70.5695 11.739 70.6813 11.6429 70.6443 11.4424C70.6111 11.2631 70.5032 11.0658 69.6418 11.0658H65.5518C65.1188 11.0658 64.9172 11.1812 64.7222 11.5397L63.3985 13.9669C63.2471 14.2455 63.0572 14.359 62.7425 14.359H56.1762L56.4564 13.5329H59.7383C60.3845 13.5329 60.653 13.3653 60.8858 12.8146L61.1991 12.0756C61.2778 11.8899 61.3435 11.6242 61.2102 11.4249C61.0561 11.1909 60.6595 11.0677 60.064 11.0677H56.9174C55.9109 11.0677 55.452 11.3489 55.097 12.1833C54.8803 12.6991 54.6623 13.2135 54.443 13.7264C54.22 14.2532 53.8663 14.359 53.367 14.359H51.1156L51.2573 14.1455C51.7026 13.4742 51.6168 12.7269 51.0226 12.0962C50.4375 11.4765 49.6638 11.2579 48.9773 11.0645H47.2278L46.0205 13.275C45.5212 14.1958 44.9751 14.3602 44.0122 14.3602H41.8934L43.6884 11.0716H42.4447C42.1554 11.0716 42.0313 11.1664 41.8505 11.383C41.8505 11.1464 41.7647 11.0716 41.5378 11.0716H40.6829C39.2727 11.0716 38.4848 11.5088 37.8724 12.6314L37.1423 13.9701C36.9882 14.2519 36.8042 14.3622 36.4856 14.3622H33.2571L35.9941 9.34148C36.031 9.2747 36.0498 9.19958 36.0486 9.12346C36.0475 9.04733 36.0265 8.9728 35.9877 8.90713C35.9488 8.84145 35.8935 8.78689 35.8271 8.74876C35.7606 8.71062 35.6853 8.69022 35.6086 8.68955H22.7867C21.9168 8.68955 21.4864 8.91008 21.0742 9.61295H26.6179L23.5259 15.2727H25.1219L28.2114 9.60909H30.4316L27.3428 15.272H28.9382C29.9676 13.3848 30.997 11.4974 32.0264 9.60973H34.2466C33.3971 11.1689 32.5476 12.7277 31.698 14.2861C31.5817 14.4995 31.4685 14.7981 31.5914 15.0064C31.6948 15.1805 31.9542 15.2727 32.341 15.2727H36.5461C36.7522 15.2727 36.8412 15.2082 36.9693 15.0515C36.9693 15.2205 37.1117 15.2727 37.2729 15.2727H44.5044C45.9386 15.2727 46.7012 14.8523 47.3181 13.7251L48.2706 11.9743L48.3688 11.9931C49.5084 12.2104 50.0858 12.634 50.1352 13.2885C50.1467 13.4161 50.1311 13.5447 50.0894 13.666C50.0478 13.7873 49.981 13.8986 49.8933 13.9927C49.7776 14.1119 49.6383 14.2062 49.4841 14.2694C49.33 14.3327 49.1642 14.3636 48.9974 14.3602C48.2686 14.3602 47.9767 14.6466 47.6972 15.2746H53.8188C54.0256 15.2746 54.114 15.2101 54.2421 15.0534C54.2421 15.2224 54.3844 15.2746 54.5457 15.2746H63.6014C64.2125 15.2746 64.4771 15.1128 64.782 14.5537L65.843 12.6095C66.0849 12.1659 66.3846 11.9931 66.9132 11.9931H68.5092C68.2233 12.1902 67.9555 12.412 67.7089 12.6559C67.4059 12.968 67.114 13.3982 67.0588 13.9553C67.0217 14.3422 67.1166 14.6769 67.3338 14.9161C67.5509 15.1553 67.8591 15.2746 68.2375 15.2746H71.9608C72.1675 15.2746 72.2559 15.2101 72.384 15.0534C72.384 15.2224 72.5264 15.2746 72.6876 15.2746H80.5204C80.7265 15.2746 80.8156 15.2101 80.9437 15.0534C80.9437 15.2224 81.086 15.2746 81.2473 15.2746H92.83C93.5276 15.2746 93.882 15.047 94.0139 14.5137C94.0269 14.4596 94.0406 14.4047 94.0536 14.3506H88.5775" fill="black"/>
<path d="M9.4248 17.9101V17.2569H11.093H12.7606V17.9101H11.093H9.4248Z" fill="black"/>
<path d="M11.0913 19.2629H12.1432V18.248H11.0913H10.04V19.2629H11.0913Z" fill="black"/>
<path d="M10.0418 16.9196C10.0386 16.3593 9.89358 15.8118 9.44629 15.4397H12.7399C12.2932 15.8118 12.1476 16.3593 12.145 16.9196H10.0418Z" fill="black"/>
<path d="M7.25488 14.3615V13.8792H11.0913H11.092H14.9284V14.3615H11.092H11.0913H7.25488Z" fill="black"/>
<path d="M7.59787 16.1013C8.06696 15.9954 8.49916 15.7675 8.85003 15.441H7.5166C7.54456 15.6609 7.57186 15.8814 7.59917 16.1013" fill="black"/>
<path d="M14.5852 16.1013C14.116 15.9957 13.6837 15.7677 13.333 15.441H14.6671L14.5852 16.1013Z" fill="black"/>
<path d="M7.12594 12.8223C6.7053 10.3236 5.89068 7.72293 5 6.01154C5.95916 6.53385 6.99006 7.36247 8.09268 8.49738C7.64103 8.37482 7.18284 8.2773 6.72025 8.20527C7.34595 9.716 7.8947 11.257 8.36444 12.8223H7.12594Z" fill="black"/>
<path d="M15.0582 12.8223C15.4788 10.3236 16.2902 7.72293 17.1841 6.01154C16.2245 6.53385 15.1934 7.36247 14.0908 8.49738C14.5426 8.3748 15.001 8.27728 15.4638 8.20527C14.8381 9.7159 14.2895 11.2569 13.8203 12.8223H15.0582Z" fill="black"/>
<path d="M6.84863 13.6283V13.1396H11.0921H11.0927H15.3361V13.6283H11.0927H11.0921H6.84863Z" fill="black"/>
<path d="M9.66225 5.7478C10.3169 4.61675 10.8793 3.33159 11.0925 2C11.3051 3.33159 11.8675 4.61675 12.5228 5.7478C12.2894 5.64204 12.0424 5.53048 11.768 5.40861C11.5314 5.30286 11.4306 5.36541 11.4384 5.61045C11.5171 8.01182 11.8695 10.7427 13.119 12.8223H11.6465C11.4229 12.29 11.2376 11.7427 11.0919 11.1844C10.9464 11.7427 10.7613 12.29 10.538 12.8223H9.06543C10.3156 10.7427 10.6674 8.01182 10.746 5.61045C10.7545 5.36541 10.6537 5.30286 10.4164 5.40861C10.1427 5.53048 9.8963 5.64204 9.66225 5.7478Z" fill="black"/>
<path d="M6.84863 15.1018V14.613H11.0921H11.0927H15.3361V15.1018H11.0927H11.0921H6.84863Z" fill="black"/>
<path d="M92.9175 21.7888H5V22.756H92.9175V21.7888Z" fill="black"/>
</g>
<defs>
<clipPath id="clip0_456_4107">
<rect width="89.0526" height="36" fill="white" transform="translate(5 2)"/>
</clipPath>
</defs>
</svg>
