<svg fill="none" height="40" viewBox="0 0 100 40" width="100" xmlns="http://www.w3.org/2000/svg" xmlns:xlink="http://www.w3.org/1999/xlink"><linearGradient id="a"><stop offset=".09" stop-opacity=".8"/><stop offset=".42" stop-opacity="0"/></linearGradient><linearGradient id="b" gradientUnits="userSpaceOnUse" x1="22.9677" x2="35.2082" xlink:href="#a" y1="1.97249" y2="7.39132"/><linearGradient id="c"><stop offset=".09" stop-opacity=".85"/><stop offset=".42" stop-opacity="0"/></linearGradient><linearGradient id="d" gradientUnits="userSpaceOnUse" x1="17.2266" x2="26.232" xlink:href="#c" y1="13.1514" y2="3.20879"/><linearGradient id="e" gradientUnits="userSpaceOnUse" x1="26.0189" x2="19.2743" xlink:href="#a" y1="22.0963" y2="10.484"/><linearGradient id="f" gradientUnits="userSpaceOnUse" x1="37.1953" x2="24.1101" xlink:href="#c" y1="16.4496" y2="19.2163"/><linearGradient id="g" gradientUnits="userSpaceOnUse" x1="35.3073" x2="33.8955" xlink:href="#a" y1="4.01378" y2="17.3882"/><clipPath id="h"><path d="m0 0h100v40h-100z"/></clipPath><clipPath id="i"><path d="m9-6h83v52h-83z"/></clipPath><g clip-path="url(#h)"><g clip-path="url(#i)"><path d="m19.32 12.4358h-.0821c-1.2313.0642-2.5993.5642-2.9596-.2019.1733.523.5974 1.8349.9577 3.023.3602 1.1881.6156 2.2936.9576 2.5642 1.0488.7661 3.1602.0551 4.4097.9679s.912 3.8119 2.0019 3.9404c1.0899.1284 1.0078-1.5276 1.3681-2.8303.3771-1.4538.9937-2.8337 1.8241-4.0826-.526-.6934-1.1533-1.3028-1.8606-1.8073-.6847-.4764-1.4427-.8359-2.2436-1.0642-1.4189-.4158-2.8974-.588-4.3732-.5092z" fill="#036291"/><path d="m25.9864 19.8716v.078c-.3192 1.188-.2645 2.6467-1.1173 2.7522h3.1603c1.2266 0 2.3758.1285 2.7361-.1192 1.0534-.7707 1.0351-3.0092 2.2801-3.922 1.2449-.9129 3.8852.3027 4.3458-.6973s-1.1309-1.4404-2.2482-2.1926c-1.2608-.8133-2.3742-1.8372-3.2924-3.0276-.8163.292-1.5848.7048-2.2801 1.2248-.6641.5126-1.2389 1.1327-1.701 1.8349-.8512 1.2398-1.4879 2.6155-1.8833 4.0688z" fill="#fde8d2"/><path d="m35.0793 15.7936.0684.0413c1.026.6697 2.4169 1.0688 2.2801 1.922.1687-.5275.5928-1.8349.9896-3.0138.3967-1.1789.8573-2.2339.725-2.6376-.4013-1.2431-2.5263-1.9174-3.0006-3.39447-.456-1.37615 1.4866-3.62385.6795-4.37156-.8072-.74771-1.7146.64679-2.7726 1.47248-1.1602.95217-2.4723 1.69975-3.8807 2.211.0242.87282.1779 1.7371.456 2.56425.2735.7916.6773 1.5312 1.1948 2.188.9109 1.1829 2.0131 2.2033 3.2605 3.0184z" fill="#c0dec1"/><path d="m24.2949 3.7569c-.0125-.02358-.0232-.04812-.0319-.07339-.4332-1.14679-1.327-2.29358-.7114-2.899086-.456.330276-1.5596 1.146786-2.5674 1.834866-1.0078.68807-1.9928 1.30275-2.1251 1.70642-.4012 1.24312.9121 3.04587.4561 4.51835-.4561 1.37614-3.3199 2.05504-3.1055 3.13304.2143 1.078 1.7557.4954 3.1009.4587 1.4935-.0865 2.9907.0826 4.428.5.485-.7189.8586-1.5077 1.1081-2.3394.2488-.80573.3613-1.64771.3329-2.49087-.0535-1.48883-.3524-2.95838-.8847-4.34863z" fill="#faceb2"/><path d="m34.0307 5.83487.0639-.05504c.953-.77065 1.7647-1.97707 2.5217-1.5734-.456-.32569-1.5641-1.1422-2.5445-1.88532-.9805-.74312-1.8241-1.504586-2.2801-1.504586-1.2997 0-2.5948 1.834866-4.1361 1.834866-1.4639 0-2.9687-2.541288-3.9218-2.004591-.9531.536701.073 1.834861.5381 3.100921.548 1.40268.8563 2.88844.912 4.39449.8315.24879 1.6955.36943 2.5629.3578.8315-.01471 1.6546-.16977 2.4351-.45872 1.3969-.51303 2.698-1.25892 3.8488-2.20642z" fill="#17162b"/><path d="m25.175 8.01837c-.0023.03513-.0023.07038 0 .10551v.27981c-.153.0677-.2854.17482-.3839.31054-.0986.13571-.1597.2952-.1773.46233s.009.33596.0771.48942.1753.2861.3108.38452c-.0274.1284-.0547.2477-.0912.3715-.1978-.1164-.3623-.2824-.4773-.48175-.1151-.19936-.1769-.4253-.1794-.65582-.0011-.28235.0877-.55763.2535-.78548.1658-.22784.3998-.39627.6677-.48058zm-1.6736 1.27064v.19725l.0638.02752c.0463.01831.0906.04137.1323.06881l.0684.0367.0456.02752.0729.04587c-.0367-.13606-.0551-.27645-.0547-.41743-.0009-.3855.126-.7603.3605-1.06518.2346-.30488.5634-.52244.9346-.6183 0-.12386-.0228-.24312-.0319-.36239-.458.11117-.8649.3755-1.1541.74969-.2891.37418-.4433.83605-.4374 1.30994zm-.757-.07798c.1185.03211.2371.06422.3557.10551-.0035-.57556.1914-1.13456.5513-1.58196.36-.44739.8629-.75558 1.4232-.87217 0-.11927-.0319-.23853-.0501-.35321-.6269.12658-1.1929.46215-1.6067.95244-.4138.4903-.651 1.10665-.6734 1.74939zm-.757-.11009h.1368c.073 0 .1505 0 .2189.02752.0327-.72896.3082-1.42568.7821-1.97812.4739-.55245 1.1188-.92852 1.8309-1.06775-.0228-.12385-.0456-.23853-.073-.35321-.7873.15659-1.5.5735-2.0247 1.18443-.5247.61092-.8313 1.38077-.871 2.18713zm-.0821-6.88073c.8156.03336 1.5874.37972 2.157.96789-.1186-.25688-.2463-.50918-.3603-.7523-.502-.32617-1.0775-.52019-1.6736-.56422l-.0957.06881v.04587c0 .01376-.0183.15596-.0274.25229zm-.3283 7.26147h-.1049c-.0841-.00439-.1678-.01358-.2508-.02753-.0302.70025-.2845 1.37185-.7249 1.91495-.4405.543-1.0435.9285-1.7194 1.0988.1733 0 .3512-.0367.5244-.0413.1733-.0046.3466 0 .529 0 .5108-.307.9377-.7368 1.2426-1.2508.3048-.5141.478-1.0962.504-1.69412zm1.482-7.79817c-.0004-.00764-.0004-.0153 0-.02294-.0003-.19169.0227-.38271.0684-.5688l-.4058.29816c-.0047.06414-.0047.12853 0 .19266.1003.03211.2189.06881.3374.10092zm-1.2631 10.09179c-.2252.0025-.446.0628-.6415.1751-.1956.1124-.3593.2732-.4758.4671l.4287.0275c.1043-.1128.234-.1986.3783-.2502.1442-.0517.2987-.0676.4504-.0464.1516.0211.296.0787.4208.1679.1249.0891.2265.2072.2964.3443.1368.0275.2781.055.4195.0917-.0763-.2815-.2427-.5298-.4736-.7065-.2308-.1766-.5132-.2717-.8032-.2705zm.1824-2.29362v.12844c0 .04128 0 .15596-.0274.22935.5286.02501 1.0432.17983 1.4986.45083.4555.2711.8381.6502 1.1144 1.1042.0547-.133.1094-.266.1596-.4082-.3177-.4384-.7295-.7992-1.2047-1.05569s-1.0017-.40209-1.5405-.426zm-.1049.76142c-.0319.1239-.0639.2432-.1049.3578h.0228c.5135-.0012 1.0147.1578 1.4346.4552.4198.2975.7375.7186.9093 1.2054.073-.1284.146-.2661.2144-.4083-.2283-.4676-.5801-.8629-1.0168-1.1429-.4368-.2799-.9417-.4336-1.4594-.4442zm-.0775.7615h-.1961l-.0274.0642-.0684.1285-.0365.0688-.0273.0459-.0456.0733c.1357-.0346.2749-.0531.4149-.055.4159-.0008.8181.1496 1.1323.4236.3143.274.5195.653.5778 1.0672l.2235.0597c.041-.0505.0775-.1101.1185-.1698-.0947-.4791-.3531-.9097-.7305-1.2172-.3773-.3075-.8497-.4724-1.3352-.4663zm-4.013.3119.0274.0597h.196c.5492-.0049 1.0741-.228 1.4603-.6208.3861-.3927.6022-.92316.6009-1.47556 0-.06881 0-.13303 0-.19725l-.0592-.02752h-.0274l-.1505-.03211-.0729-.04587h-.0365l-.0775-.05046c.0322.13692.0505.27678.0547.41743-.0059.44994-.1859.87984-.5018 1.19844s-.7428.5009-1.1901.508c-.1397-.0008-.279-.0177-.4149-.0505.0168.0234.032.0479.0456.0734l.0273.0459.0411.0688.0684.1284zm.2234.4588c.0426.1162.0791.2354.1095.3577.7223-.0254 1.4077-.3273 1.9162-.8439.5085-.5167.8018-1.2091.8199-1.93586-.1231-.03211-.2417-.06423-.3557-.10551.0092.33422-.0485.66689-.1697.97827-.1211.3113-.3032.595-.5354.8342-.2323.2392-.5099.429-.8165.5581-.3066.1292-.6359.195-.9683.1937zm2.4397-6.31656c-.0018-.26239.0739-.51941.2174-.73852s.3484-.39045.5888-.49233.5054-.12971.7615-.07997c.2562.04974.4918.17482.6772.35939s.3122.42033.3643.67743.0272.52398-.0715.76683c-.0988.24285-.267.45075-.4833.59738s-.4711.22539-.7319.2263c-.3426.0014-.6722-.13143-.9191-.37033-.2468-.2389-.3915-.56511-.4034-.90948zm.3557 0c0 .19182.0567.37931.1629.53867.1061.15936.2569.28341.4333.35639.1763.07298.3702.0916.5571.0535.1869-.03809.3584-.13119.4926-.26747.1341-.13628.2251-.3096.2612-.49795.036-.18835.0157-.38325-.0585-.55994-.0743-.17669-.199-.32721-.3584-.43245-.1595-.10524-.3464-.16046-.5371-.15864-.1283.00115-.2551.02811-.3729.07929-.1178.05119-.2242.12555-.3131.21873-.0888.09318-.1581.20329-.204.32384-.0459.12056-.0673.24913-.0631.37814zm1.1948 2.01376v-.02752c0-.04129.0411-.08716.0639-.12844.0135-.02547.0287-.04999.0456-.0734v-.03669l.0501-.07799c-.1341.03466-.2719.05314-.4104.05505-.2258.00121-.4496-.04233-.6586-.12812-.209-.0858-.3992-.21217-.5597-.3719-.1605-.15974-.2882-.34971-.3757-.55906-.0875-.20936-.1331-.434-.1343-.6611.0004-.13913.0172-.27772.0501-.41285l-.0729.04587-.0456.02753-.0684.04128-.1277.06881-.0638.03211c-.0047.06413-.0047.12852 0 .19266.0036.55275.225 1.08149.6157 1.4702.3907.3887.9188.60563 1.4683.60319h.1915c.0091.00918.0228-.00917.0319-.02752zm-4.2227 5.1376c-.0951-.6433-.3614-1.2488-.7707-1.7523-.0999.0644-.1959.1349-.2873.211.3685.4469.6096.9859.6977 1.5597.1368.0091.2371 0 .3603-.0184zm2.695-9.63301c-.798.54128-1.5003 1.01376-1.6097 1.34403v.05505c.6938-.23379 1.2706-.72859 1.6097-1.38073zm-3.4657 9.63301c-.0852-.4689-.2859-.9089-.5837-1.2798-.0882.0955-.1564.2078-.2006.3303.1989.2646.3417.5675.4195.8899.1163.049.2393.08.3648.0917zm4.6924-4.27521c.0274-.12138.0625-.24089.1049-.3578h-.0228c-.3252.00181-.6475-.06082-.9486-.18433-.3011-.1235-.5751-.30546-.8063-.53548-.2312-.23001-.4151-.50359-.5412-.8051s-.192-.62506-.1937-.95216v-.02293c-.1125.04281-.2311.07951-.3557.11009.0087.17588.0316.35077.0684.52293l.082.289c.1859.55314.5362 1.03548 1.0036 1.38172.4673.34624 1.0292.53966 1.6094.55406zm.0548-4.58716c.2265-.00121.451.04263.6607.129.2096.08636.4002.21356.5608.37426.1606.16071.2881.35176.375.56217.087.21042.1318.43605.1318.66393.0011.14046-.0142.28056-.0456.41743l.0775-.05046h.0319l.0775-.04587.1232-.06881h.0273l.0593-.02752c.0045-.06414.0045-.12852 0-.19266-.0012-.27409-.056-.54526-.1614-.79803-.1054-.25276-.2592-.48217-.4528-.67513-.1935-.19296-.4229-.34569-.6751-.44946-.2522-.10378-.5222-.15657-.7947-.15536-.0638-.00451-.1278-.00451-.1915 0l-.032.05963v.02293l-.0684.12845-.041.0688-.0274.04587-.041.0734c.1321-.03899.2683-.06209.4059-.06881zm-.26-1.48624-.4332.30734c-.1539.54175-.4449 1.03406-.8445 1.42883-.3997.39477-.8943.6785-1.4356.82346.0002.12284.0094.24549.0274.36698.6813-.16914 1.2986-.53501 1.7758-1.05255.4772-.51755.7936-1.16419.9101-1.8603zm.1049 6.69725c.0044-.07847.0135-.1566.0274-.23395-.4248-.01663-.8421-.1176-1.2279-.29709-.3859-.17949-.7326-.43397-1.0203-.74878.0226.17487.0318.35124.0274.52752.6065.53456 1.3744.84805 2.1797.88991.0092-.04128.0092-.07339.0137-.12385zm-2.2801.34404c-.0026-.11482-.0194-.22885-.0501-.33945-.0853.19144-.2025.36676-.3466.51835-.0359.21944-.1465.41952-.3129.56592-.1663.1465-.3782.2302-.5992.2368h-.0775l-.4195.2707c.1599.0627.3299.0954.5016.0963.3479-.0048.6799-.1479.9233-.398.2435-.25.3788-.58684.3764-.93686zm2.4397-6.32111c.656-.00244 1.2861.25703 1.752.72144.466.46441.7297 1.09582.7333 1.75563l.3557-.11009c-.0253-.72657-.3254-1.41601-.839-1.92752-.5136-.51152-1.2019-.80652-1.9245-.82478-.028.12272-.063.24372-.1048.36239h.0273z" fill="#e00c19"/><path d="m32.1434 13.1927-.7661-.2523c-.1733.0734-.3557.1559-.5472.2523.5966.0757 1.1807.2299 1.7374.4587-.1398-.1346-.2812-.2875-.4241-.4587z" fill="#c86d14"/><path d="m34.975 16.8211c-.0999-.4746-.2529-.9362-.456-1.3761l-.0456-.0826c-.1916-.1376-.3877-.289-.5838-.4587l.0502.0917c.3346.5941.5819 1.2338.7342 1.8991.0913.4835.0913.9799 0 1.4633h.3283c.0805-.5099.0713-1.03-.0273-1.5367z" fill="#c86d14"/><path d="m28.855 20.656.0958-.0918c.4203-.4182.7333-.933.912-1.5.0638-.1926.1049-.4082-.0365-.5183s-.3648 0-.5928.1284l-.0775.0459c-.4159.3316-.791.712-1.1173 1.133l-.228.2615c-.276.2867-.4793.636-.5928 1.0183-.0113.021-.0179.0441-.0195.0679-.0015.0237.0021.0475.0105.0697.0085.0223.0216.0424.0385.0591.0169.0166.0372.0294.0595.0374s.046.0111.0696.0091c.0236-.0021.0464-.0093.067-.021.0205-.0118.0383-.0279.0521-.0473.0138-.0193.0233-.0414.0278-.0648.0987-.3449.2804-.66.529-.9174l.228-.2615c.3101-.3875.6568-.7439 1.0352-1.0642l.0821-.0504.1869-.101c0 .0276 0 .0643-.0319.1101-.1619.5217-.4502.9946-.8391 1.3762l-.0912.0871c-.707.622-1.2505 1.4098-1.5824 2.2936h.3466c.3235-.7921.8263-1.4973 1.4684-2.0596z" fill="#2d2a66"/><path d="m29.4982 20.9817c.2329-.2577.4506-.5288.6521-.812.7205-1.0413.6111-1.7614.3922-2.1835-.0497-.1107-.1248-.2079-.2191-.2837-.0944-.0758-.2053-.1279-.3236-.152-.1447-.0141-.2907.0054-.4267.0571s-.2584.1342-.3577.241c-.1413.1331-.3283.289-.5609.4863-.3055.2477-.6794.5642-1.1126.9633-.2784.2346-.5058.5242-.6681.8509-.1624.3267-.2563.6834-.2759 1.0482v.11c-.0727.4844-.2013.9585-.3831 1.4129h.3466c.1525-.4467.2594-.9078.3192-1.3762v-.1101c.0162-.3282.0994-.6495.2445-.9439.1452-.2944.3492-.5555.5992-.7671.4286-.3899.798-.7018 1.099-.9541.3009-.2523.4286-.3578.5791-.4954.0625-.0721.1407-.1287.2285-.1653s.1829-.0522.2777-.0457c.0682.0166.1317.0489.1855.0942.0537.0454.0964.1026.1246.1673.2508.4908.1231 1.1284-.3739 1.8348-.1934.2744-.4036.5364-.6294.7844-.3694.3925-.677.8396-.912 1.3257-.1049.2294-.1961.4587-.2827.6468h.3511c.0684-.1606.1459-.3349.228-.5138.2339-.4516.5371-.8634.8984-1.2201z" fill="#e00c19"/><path d="m30.2687 20.6101c-.0204-.0063-.0418-.0084-.063-.0063-.0212.0022-.0417.0085-.0604.0188s-.0352.0242-.0485.0409c-.0132.0168-.023.0361-.0288.0567-.283.7137-.6215 1.404-1.0123 2.0642h.3648c.3726-.6266.6929-1.2833.9576-1.9633.007-.0211.0098-.0433.008-.0655-.0017-.0221-.0078-.0437-.0181-.0634-.0102-.0197-.0243-.0371-.0413-.0512-.0171-.0141-.0368-.0246-.058-.0309z" fill="#c86d14"/><path d="m31.3993 18.7844c.1231-.6605.1778-1.289-.4561-1.7293-.271-.1847-.5928-.2792-.9201-.2701-.3272.009-.6434.1211-.9039.3205-.4758.3217-.9326.6709-1.3681 1.0459-.429.3442-.8189.735-1.1628 1.1651-.418.5462-.6556 1.2103-.6795 1.8991l-.0319.2248c-.048.4459-.1795.8786-.3876 1.2752h.3602c.1918-.3853.3153-.8013.3648-1.2294l.0274-.2247c.0193-.6257.2312-1.23.6065-1.7294.3317-.4179.7096-.7965 1.1264-1.1284.436-.3672.8928-.7088 1.368-1.023.2049-.154.4512-.2422.7068-.2528.2555-.0107.5083.0567.7251.1932.456.3073.456.6973.3284 1.4037-.1277.7064-.1825.9862-.2691 1.6514-.1582.8242-.3964 1.6308-.7114 2.4082.1212-.0075.2416-.0244.3603-.0504.2924-.7409.5108-1.5093.6521-2.2936.0957-.6789.1368-.9587.2645-1.656z" fill="#f5a507"/><path d="m32.1981 18.6055c.1687-.9679.0364-1.6238-.4105-2.0688-.4469-.4449-.7524-.4083-1.4729-.3578h-.3785c-.3769-.0075-.7498.0792-1.0853.2523-.5423.1995-1.0432.4981-1.4775.8807l-.2919.2477-.4195.3487c-.1186.2844-.228.555-.3192.8165.289-.3314.6047-.6383.9439-.9175l.2964-.2477c.4118-.3624.8864-.6454 1.4-.8348.2988-.1543.631-.2315.9668-.2248h.3876c.7296-.0505.912-.0321 1.2221.2661.3101.2981.5108.6743.3192 1.7798-.0501.3073-.114.6422-.1824.9908-.1413.7339-.2964 1.5505-.3921 2.3395.2011-.4152.3763-.8427.5244-1.2799.0593-.3394.1231-.6789.1869-.9954.0639-.3165.1277-.688.1825-.9954z" fill="#036291"/><path d="m32.8815 17.2798c-.073-1.0963-.5564-1.4725-.944-1.5917-.4829-.1908-1.0001-.2783-1.5185-.2569-.7287.0569-1.4498.1875-2.1525.3899-.2068.0774-.4093.1662-.6065.2661-.1185.1835-.228.3669-.3329.5458.3294-.2007.6777-.3682 1.0398-.5.6778-.1928 1.3727-.3188 2.0749-.3761.4762-.014.9505.0671 1.3954.2385.4286.1376.6703.5734.7205 1.3074.0333.7132-.0296 1.4276-.187 2.1238.1182-.1962.2607-.3766.4241-.5367.0895-.5316.1185-1.0718.0867-1.6101z" fill="#18152c"/><path d="m33.3881 16.2753c-.1001-.294-.2636-.562-.4788-.7849-.2153-.2228-.4769-.395-.7661-.5041-.5883-.2982-1.2768-.2019-2.1478-.078h-.146c-.3192.0459-.5609.0642-.7798.0825-.2189.0184-.4332.0367-.6703.0734-.1095.1285-.2143.2615-.3192.3991.3345-.0752.6746-.1228 1.0169-.1422.2189 0 .456-.0413.7935-.0871l.1505-.023c.8162-.1146 1.4592-.2064 1.9563.0459.2494.0938.4754.2413.6622.4323.1867.191.3295.4208.4185.6732.1648.7138.2308 1.447.1961 2.1789.1043-.0468.2127-.0837.3238-.1101.0301-.725-.0405-1.4506-.2098-2.1559z" fill="#e00c19"/><path d="m31.4135 14.5275c.0223.0078.046.0107.0695.0084.0235-.0024.0463-.0097.0667-.0217.0204-.0119.038-.0282.0516-.0476.0137-.0194.0229-.0416.0272-.065.0044-.0233.0036-.0474-.0022-.0704-.0057-.023-.0164-.0446-.0312-.0631-.0147-.0185-.0333-.0336-.0545-.0443-.0211-.0106-.0443-.0165-.0679-.0174-.3162-.0581-.6363-.0918-.9576-.1009-.4355.0119-.8697.0533-1.2997.1239-.1504.1284-.2918.2614-.4332.4037.5693-.1174 1.1475-.1849 1.7283-.2019.3029.0103.6047.0425.903.0963z" fill="#de8508"/><path d="m34.2314 16.6468c-.095-.5565-.3358-1.0775-.6977-1.5092-.0684-.0963-.1368-.188-.1961-.2798-.4909-.5567-1.1091-.9849-1.8012-1.2477l-1.3088-.078c-.187.1101-.3831.2386-.5792.3808h.187c.526-.089 1.0637-.0812 1.587.0229.6232.2316 1.1828.609 1.6325 1.1009.0638.0964.1368.1927.2098.2936.3278.3953.5478.8695.6384 1.3761.0733.5518.0946 1.1094.0638 1.6652.1049 0 .2144 0 .3238-.023.035-.5678.0152-1.1378-.0593-1.7018z" fill="#406f43"/><path d="m37.0683 17.0367v-.0642c-.1425-.1147-.2952-.216-.456-.3028v.0597c.1942.5241.2507 1.0897.1642 1.6422.1263-.025.246-.0766.3511-.1514.0506-.3949.0306-.7957-.0593-1.1835z" fill="#18152c"/><path d="m35.7186 17.0551c-.0428-.3306-.1224-.6552-.2372-.9679v-.0551c-.1276-.0734-.2508-.1514-.3648-.2293l-.1322-.0872.0273.0642c.0593.1514.1049.2477.1414.3303.1408.3186.23.6577.2645 1.0046.0661.4225.0661.8527 0 1.2752h.3238c.0585-.4436.0508-.8935-.0228-1.3348z" fill="#036291"/><path d="m36.2887 16.5275v-.055l-.4059-.2156v.055.0505c.1904.5036.2833 1.0393.2736 1.578 0 .1743-.0273.3348-.0456.4862h.3284c0-.1468.0273-.2936.041-.4587.0252-.4879-.0398-.9763-.1915-1.4404z" fill="#2d2a66"/><path d="m35.7907 4.29819c.1484-.11435.3328-.17124.5195-.16029.1866.01094.3632.08899.4974.21992l.0593.06881c.1049.15939.1471.35231.1185.54129zm.912 1.72477c-.5153-.45872-1.0443-.88073-1.5185-1.25688-.1414.12844-.2828.27064-.4287.40826.5655.41743 1.1993.8211 1.8241 1.19724zm-2.2801 6.55044s0-.0321 0-.0459c-.3557-.688-1.1537-1.9449-1.4319-2.58252l-.3922-.83945c.067 1.03167.3433 2.03857.8118 2.95867.0273.0643.0547.1239.082.1744.3557.6972.9121 1.6559 1.1538 2.3256.1369.3765.2452.763.3237 1.156l.1049.0734.0411.0229c.1314-1.1283-.1123-2.2687-.6932-3.2431zm-2.1159-3.38989c-.1003-.66055-.1642-1.37615-.2143-2.02752l-.1824.10092v1.48623c-.054 1.62286.1335 3.24476.5563 4.81196.0866.1009.1778.1926.2645.2844 0-.3257 0-.6514-.0365-.9771.456.7936.8573 1.4541 1.1857 2.0413.2143.1743.4195.3303.6156.4587-.2326-1.0413-.9531-2.1835-1.8606-3.3899-.0866-1.0229-.2052-1.99541-.3283-2.78899zm4.2136 7.42659c.3922-.0642.8345-.1147 1.3225-.1559.0592-.1881.1276-.39.1915-.5918-.6672.0602-1.3202.229-1.9335.5zm.912 1.0551c.0023.029.0023.0581 0 .0871.0593-.1835.1505-.4587.2554-.789-.2143 0-.4195 0-.6202 0 .1105.0802.2003.1857.2622.3077.0619.1221.0939.2572.0935.3942zm1.3088-6.211c-.0819-.0932-.1687-.182-.2599-.2661-.0319.0505-.0821.1239-.1095.1743-.3374.578-.7113 1.1651-1.0944 1.711-.6658.9541-1.2951 1.922-1.8879 2.9174l.1915.1056c.2554-.4588.5153-.9175.7844-1.3762.7012-1.1526 1.4959-2.245 2.3758-3.266zm-3.0051 4.7293.0592.0321c.7515-.3732 1.5536-.6329 2.3805-.7706.0729-.211.1413-.422.2097-.6285-1.0003.1754-1.9242.6521-2.6494 1.367zm-4.5602-8.56421c-.2144.10092-.4561.19725-.6841.29358l-.3101.45871c.0168.27832.0487.5555.0958.83028.3567-.48192.6624-1.00003.912-1.54587zm4.51 3.00461c.3291 1.2059.4932 2.4513.4879 3.7018.2821-.9469.365-1.9426.2433-2.9235s-.4453-1.9256-.9501-2.77373c.301.22935.6384.45871.9394.6422-.0985-.14342-.181-.29724-.2463-.45872-.7478-.79358-1.6963-1.75229-2.4761-2.68807-.1414.11009-.2919.22018-.4561.33027.5262.70368 1.1391 1.33721 1.8241 1.88532.1779.6101.3238 1.15138.456 1.63762l-.1732-.27982c-.8215-.99284-1.583-2.03447-2.2801-3.11926-.1095.07339-.2144.14679-.3284.21559.6485 1.50806 1.6668 2.82594 2.9596 3.8303zm-1.7192.3027c.5243.7274.962 1.5142 1.3042 2.3441.2158.5907.3523 1.2078.4059 1.8348.4149-1.4724-.0776-3-.9121-4.3669v-.023c-.0185-.0367-.0399-.072-.0638-.1055-.5518-.91741-1.4319-1.99998-1.7329-2.56879-.2143-.40367-.4058-.7844-.5472-1.08257l-.1368.08257c.2599 1.40557.8354 2.73288 1.6827 3.88069zm-3.5524-1.03667c.0593.22477.1231.45867.2007.70647l.0228.055c.4864-.86623.8284-1.80684 1.0123-2.7844-.476.6316-.8885 1.30924-1.2312 2.02293zm1.2267-.69266s-.3329 1.02753-.7068 2.17893c.0912.1835.1869.3669.2964.5458.3024-.8751.4431-1.7986.415-2.72473zm5.6455 1.00463c-.1947-.1609-.379-.33399-.5518-.51839.0274.80739.0593 1.96329.1277 3.59629.3379-.9888.4835-2.0338.4287-3.0779zm-1.0397-2.92665c-.6156-.61926-1.2404-1.20642-1.8241-1.76146-.1185.11009-.2417.21559-.3648.31651l-.0866.06881c.67.64678 1.3965 1.2317 2.1706 1.7477.0274-.13302.0593-.25229.1049-.37156zm1.4775 4.66975c.1333-.3564.2489-.7193.3466-1.0872l-.3922-.3165c-.0121.4682.0001.9367.0365 1.4037zm-1.6143 3.5275c.7515-.4602 1.5657-.8079 2.4169-1.0321.0775-.2294.1596-.4587.2326-.6606-1.0375.2775-1.9654.8683-2.6586 1.6927zm.5335-.8165c.697-.546 1.4639-.995 2.2801-1.3349.0699-.2063.1293-.416.1779-.6284-.9613.4553-1.8054 1.1271-2.4671 1.9633zm.8482-1.2752c.3147-.2248.9349-.5918 1.6691-1 .0174-.0894.0174-.1813 0-.2707-.024-.0817-.0577-.1603-.1004-.2339-.5996.417-1.1318.9245-1.5778 1.5046z" fill="#084022"/><path d="m34.9107 3.24313c.0011-.08568.0247-.16955.0684-.24311.26.19724.5153.38073.7434.55045-.0429.05035-.096.09078-.1558.11849-.0599.02772-.1249.04207-.1908.04206-.0614.00125-.1225-.01-.1795-.03307s-.1087-.05749-.1522-.10119c-.0434-.0437-.0776-.09577-.1006-.15311-.0229-.05733-.0341-.11873-.0329-.18052zm-8.7327.05046h1.1035l.4971.49542h1.2221l.2235.22477c-.0281.06187-.0421.12925-.0411.19724 0 .09073.0268.17942.0769.25485.0501.07544.1213.13423.2047.16895.0833.03472.175.04381.2634.02611.0885-.0177.1697-.06139.2335-.12555.0638-.06415.1072-.14588.1248-.23487.0176-.08898.0086-.18121-.0259-.26503s-.093-.15546-.168-.20586c-.075-.05041-.1631-.07731-.2533-.07731-.0661-.00036-.1314.01373-.1916.04128l-.3192-.3211h-1.2175l-.4925-.50459h-1.1036l-.684-.68807h-1.5095l-.3374.33945c.0456.10551.1003.20642.1505.31193l.3192-.3211h1.2449zm1.441 2.87156c-.0661-.00035-.1314.01373-.1915.04129l-.7023-.70184h-.7479l-.2462.24771h-.8437c0 .1055.0457.2156.0639.32569h.912l.2463-.24771h.456l.6065.61009c-.0274.06047-.0414.12621-.041.19266 0 .09073.0267.17942.0768.25485.0501.07544.1213.13423.2047.16895.0833.03472.175.0438.2634.0261.0885-.0177.1698-.06138.2335-.12554.0638-.06415.1072-.14588.1248-.23487.0176-.08898.0086-.18121-.0259-.26503s-.093-.15546-.168-.20587c-.075-.0504-.1631-.0773-.2533-.0773zm5.1804-.94495v-3.87615c-.114-.08715-.2235-.16055-.3284-.22936v4.12844c-.0847.035-.157.09486-.2074.17176-.0504.07691-.0767.16732-.0753.25944 0 .12166.0481.23833.1336.32436.0855.08602.2015.13435.3224.13435.121 0 .237-.04833.3225-.13435.0855-.08603.1335-.2027.1335-.32436.0048-.09814-.0218-.19524-.076-.27699-.0542-.08176-.133-.14385-.2249-.17714zm-6.1745 1.79358c0-.09073-.0268-.17942-.0769-.25485-.0501-.07544-.1213-.13423-.2046-.16895-.0834-.03472-.175-.0438-.2635-.0261-.0885.01769-.1697.06138-.2335.12554-.0638.06415-.1072.14588-.1248.23487-.0176.08898-.0086.18121.026.26503.0345.08382.0929.15546.1679.20586.075.05041.1632.07731.2534.07731.0562-.00043.1118-.01132.1641-.03211l.415.41285v.57798c.1049 0 .2098.02293.3238.02752v-.72936l-.4925-.5c.0314-.0674.047-.14116.0456-.21559zm4.1042-.94955c-.0951-.00057-.1879.02874-.2656.08385-.0777.0551-.1363.13324-.1677.22349h-.7752l-1.327 1.33487v.76605l.3238-.03211v-.60092l1.1354-1.1422h.6385c.031.07536.0815.14103.1462.19024.0647.0492.1412.08016.2218.08969.0805.00953.1621-.00272.2364-.03549.0743-.03276.1385-.08486.1861-.15092s.0768-.14369.0846-.22489c.0079-.08119-.006-.16302-.0401-.23705-.034-.07402-.0871-.13757-.1538-.18408-.0666-.04651-.1443-.07431-.2252-.08053zm-5.7413-2.12844c.0902 0 .1783-.0269.2533-.0773.075-.05041.1335-.12205.168-.20587s.0435-.17605.0259-.26503-.061-.17072-.1248-.23487c-.0637-.06415-.145-.10784-.2335-.12554-.0884-.0177-.1801-.00862-.2634.0261-.0834.03472-.1546.09351-.2047.16895s-.0768.16412-.0768.25485c.0009.05948.0117.11839.0319.17431l-.228.2156c.041.1055.0775.21559.1185.33027l.3284-.30275c.0647.02825.1346.04233.2052.04128zm3.5797 1.99083c.0647-.00744.1271-.02873.1829-.06244.0558-.0337.1038-.07904.1408-.13296.0369-.05393.0619-.11519.0734-.17966s.009-.13066-.007-.19412c-.0161-.06345-.0456-.12271-.0863-.17377-.0408-.05107-.092-.09276-.1501-.12228s-.1218-.04617-.1869-.04885c-.065-.00267-.1299.0087-.1902.03335l-.9713-.97707h-1.6417l-.6795.6789h-.4241c.0319.11009.0639.2156.0912.33028h.456l.6749-.68349h1.3681l.912.91743c-.0206.0526-.0314.10858-.0319.16514.0012.06064.0143.12044.0386.17594.0243.05551.0593.10561.103.14742s.0952.07449.1515.09614c.0563.02166.1164.03187.1766.03004zm2.686-3.91743v-1.091744c-.1209.03901-.2384.088114-.3512.146784l.0274.61927h-.6111l-.1687-.16972-.2873.16972.3147.31652zm-.871 1.13303c.0325.09409.0946.17497.1769.23041.0822.05545.1802.08245.2791.07693.124 0 .2429-.04954.3305-.13772.0877-.08817.1369-.20777.1369-.33247s-.0492-.24429-.1369-.33247c-.0876-.08817-.2065-.13771-.3305-.13771-.0989-.00553-.1969.02147-.2791.07692-.0823.05545-.1444.13633-.1769.23042h-.6339l-.6339-.63762-.3009.16055.798.80276zm1.3361-2.321104v3.032114l-.8071.81651c-.0855-.04081-.1814-.05391-.2745-.03747s-.1789.06159-.2454.12921c-.0448.04286-.0806.09444-.105.15161s-.0369.11874-.0369.18096.0125.12379.0369.18096c.0244.05718.0602.10876.105.15161.0425.0444.0935.07971.15.10383.0564.02412.117.03655.1783.03655s.122-.01243.1784-.03655.1074-.05943.15-.10383c.0682-.06725.1137-.15434.13-.24899.0164-.09464.0028-.19207-.0388-.27853l.912-.91743v-3.105509c-.0749-.033943-.1552-.054139-.2371-.059633zm-7.5015 1.119264c.0989.00553.1969-.02147.2791-.07692.0823-.05545.1444-.13633.1769-.23042h1.0853l-.3967-.32569h-.7114c-.0325-.09408-.0946-.17497-.1769-.23041-.0822-.05545-.1802-.082452-.2791-.07693-.1209 0-.2369.04833-.3225.13436-.0855.08603-.1335.2027-.1335.32436s.048.23833.1335.32436c.0856.08603.2016.13436.3225.13436zm9.3438 0-.3237-.25688v2.78899l1.099 1.11009.2417-.22018-1.017-1.02294zm.7342.56422-.2234-.16972-.1049-.08716v1.35321l1.2221 1.16055c.0821-.07798.1687-.15137.2508-.22018l-1.1491-1.07798z" fill="#62c1d8"/><path d="m25.9682 14.9129h1.0717c-.0958-.0964-.2007-.1927-.3101-.2936h-.7616v-.6147c-.0729-.055-.1505-.1055-.2325-.156v.7707h-.2098l-.456-.4587v-.6927l-.2828-.133v.8394l-.456.4587h-.1961v-1.5504l-.2006-.0826v1.6193h-1.2723v-1.9266l-.2326-.0459v1.9725h-.2097l-.4561-.4587v-1.6331l-.2781-.0367v1.6835l-.456.4587h-.1916v-2.1926h-.2325v2.1789h-1.2313v-2.1881h-.1368-.114v2.1881h-.2052l-.456-.4587v-1.6422l-.2828.0367v1.6192l-.456.4587h-.1733v-2h-.2325v1.9863h-.2737c.0274.1009.0593.1972.0912.2936h.1825v.6101c.082.2752.1596.5458.2325.8027v-1.4128h.1961l.456.4587v1.8348l-.2462.2477c.0525.1386.1387.2616.2508.3578.1783.1241.3777.2143.5883.2661l.1322-.1376h.2098v.211l.2371.0459v-.2432h1.2632v.3166h.2325v-.3303h.1916l.3921.3991c.1141 0 .2281.0413.3329.0688l.4561-.4587h.2097v.7064c.0593.0367.1186.0688.1733.1101.0218.0143.0417.0312.0593.0504v-.8761h1.2495v2.7523h-.3739c.0273.1009.0501.1972.0775.2936h.2964v1.0229c.0583.162.1364.3161.2326.4587v-1.4954h.196l.4561.4587v1.3074c.0994-.0082.1958-.0379.2827-.0872v-1.2431l.456-.4587h.2098v.133c.0684-.3762.1322-.7798.2371-1.156v-1.9862h.6658c.041-.0963.0866-.1927.1323-.289h-.8209zm-6.8402 2.7523h-.2098l-.456-.4588v-1.8348l.456-.4587h.2098zm1.5003 0h-1.2541v-2.7523h1.2632zm.871-.4588-.4561.4588h-.1915v-2.7523h.1915l.4561.4587zm.9348.4588h-.2098l-.456-.4588v-1.8348l.456-.4587h.2098zm1.4957 0h-1.2677v-2.7523h1.2723zm.871 2.5825-.456.4587h-.1961v-2.7523h.1961l.456.4588zm0-3.0275-.456.4587h-.1961v-2.7523h.1961l.456.4587zm.9121 3.4725h-.2098l-.456-.4587v-1.8349l.456-.4587h.2098zm0-3.0275h-.2098l-.456-.4588v-1.8348l.456-.4587h.2098zm1.7328-2.2936v.9908c-.082.133-.1596.2706-.2325.3991v-1.656z" fill="#bae1f7"/><path d="m34.0307 5.83487.0639-.05504c.953-.77065 1.7647-1.97707 2.5217-1.5734-.456-.32569-1.5641-1.1422-2.5445-1.88532-.9805-.74312-1.8241-1.504586-2.2801-1.504586-1.2997 0-2.5948 1.834866-4.1361 1.834866-1.4639 0-2.9687-2.541288-3.9218-2.004591-.9531.536701.073 1.834861.5381 3.100921.548 1.40268.8563 2.88844.912 4.39449.8315.24879 1.6955.36943 2.5629.3578.8315-.01471 1.6546-.16977 2.4351-.45872 1.3969-.51303 2.698-1.25892 3.8488-2.20642z" fill="url(#b)"/><path d="m24.2949 3.7569c-.0125-.02358-.0232-.04812-.0319-.07339-.4332-1.14679-1.327-2.29358-.7114-2.899086-.456.330276-1.5596 1.146786-2.5674 1.834866-1.0078.68807-1.9928 1.30275-2.1251 1.70642-.4012 1.24312.9121 3.04587.4561 4.51835-.4561 1.37614-3.3199 2.05504-3.1055 3.13304.2143 1.078 1.7557.4954 3.1009.4587 1.4935-.0865 2.9907.0826 4.428.5.485-.7189.8586-1.5077 1.1081-2.3394.2488-.80573.3613-1.64771.3329-2.49087-.0535-1.48883-.3524-2.95838-.8847-4.34863z" fill="url(#d)"/><path d="m19.32 12.4358h-.0821c-1.2313.0642-2.5993.5642-2.9596-.2019.1733.523.5974 1.8349.9577 3.023.3602 1.1881.6156 2.2936.9576 2.5642 1.0488.7661 3.1602.0551 4.4097.9679s.912 3.8119 2.0019 3.9404c1.0899.1284 1.0078-1.5276 1.3681-2.8303.3771-1.4538.9937-2.8337 1.8241-4.0826-.526-.6934-1.1533-1.3028-1.8606-1.8073-.6847-.4764-1.4427-.8359-2.2436-1.0642-1.4189-.4158-2.8974-.588-4.3732-.5092z" fill="url(#e)"/><path d="m25.9864 19.8716v.078c-.3192 1.188-.2645 2.6467-1.1173 2.7522h3.1603c1.2266 0 2.3758.1285 2.7361-.1192 1.0534-.7707 1.0351-3.0092 2.2801-3.922 1.2449-.9129 3.8852.3027 4.3458-.6973s-1.1309-1.4404-2.2482-2.1926c-1.2608-.8133-2.3742-1.8372-3.2924-3.0276-.8163.292-1.5848.7048-2.2801 1.2248-.6641.5126-1.2389 1.1327-1.701 1.8349-.8512 1.2398-1.4879 2.6155-1.8833 4.0688z" fill="url(#f)"/><path d="m35.0793 15.7936.0684.0413c1.026.6697 2.4169 1.0688 2.2801 1.922.1687-.5275.5928-1.8349.9896-3.0138.3967-1.1789.8573-2.2339.725-2.6376-.4013-1.2431-2.5263-1.9174-3.0006-3.39447-.456-1.37615 1.4866-3.62385.6795-4.37156-.8072-.74771-1.7146.64679-2.7726 1.47248-1.1602.95217-2.4723 1.69975-3.8807 2.211.0242.87282.1779 1.7371.456 2.56425.2735.7916.6773 1.5312 1.1948 2.188.9109 1.1829 2.0131 2.2033 3.2605 3.0184z" fill="url(#g)"/><path d="m49.0522 1.22937h-.228v20.87613h.228z" fill="#000"/><path d="m80.6227 4.43579c-2.8136 0-6.7855.84862-11.0858 2.43119-3.8431 1.40814-7.5233 3.23072-10.9764 5.43582 3.3118-1.2286 6.8043-1.8921 10.3334-1.9633 4.9342 0 8.4455 1.899 3.256 8.5596 15.304-10.07799 14.8799-14.46331 8.4728-14.46331z" fill="#ff8000"/><g fill="#000"><path d="m23.0682 32.6239h-.8755l-1.4182-2.4771v.4587c0 .1468 0 .3119.0228.4587v1.5413h-.6157v-3.2569h.871l1.4137 2.4542c0-.1514 0-.2982 0-.4588 0-.1605 0-.3027 0-.4587v-1.5367h.6019z"/><path d="m27.7014 32.6239h-1.8743v-3.2753h1.8743v.5688h-1.1857v.7202h1.1036v.5688h-1.1036v.8441h1.1857z"/><path d="m33.274 30.9817c.0076.3053-.0499.6088-.1687.8899-.1028.2446-.28.4501-.5062.5871-.2651.1507-.5668.2238-.871.211-.3056.0127-.6088-.0604-.8755-.211-.2343-.1371-.4207-.3438-.5336-.5917-.115-.2821-.1709-.5851-.1642-.8899-.0067-.3034.0492-.6048.1642-.8853.1056-.2431.2842-.4468.5108-.5826.2683-.1507.573-.2238.8801-.211.3042-.0128.6059.0603.871.211.2265.1365.4039.3422.5061.5871.125.2782.1888.5802.187.8854zm-2.3758 0c-.0161.2842.0521.5668.196.8119.0701.1002.1651.1801.2756.2317.1104.0515.2325.0729.3538.0619.1219.0108.2445-.0105.3557-.062s.2071-.1313.2781-.2316c.1401-.2465.2066-.5284.1915-.8119.0153-.2821-.0513-.5626-.1915-.8074-.0698-.1007-.1646-.1813-.2751-.2336-.1104-.0523-.2325-.0746-.3542-.0645-.1223-.0104-.2452.0117-.3565.064-.1112.0523-.2068.133-.2774.2341-.1438.2435-.2121.5246-.196.8074z"/><path d="m37.2639 32.6239-.7844-2.5688v.2752.3945.3761 1.523h-.5928v-3.2753h.9394l.7889 2.5046.8163-2.5046h.9394v3.2753h-.6475v-1.5505c0-.1055 0-.2248 0-.3578s0-.2615 0-.3807c0-.1193 0-.2156 0-.2753l-.8391 2.5643z"/><path d="m46.6262 32.6239-.8026-2.5688v.2752.3945.3761 1.523h-.5746v-3.2753h.9394l.7707 2.5046.8163-2.5046h.9394v3.2753h-.6111v-1.5505c0-.1055 0-.2248 0-.3578s0-.2615 0-.3807c0-.1193 0-.2156 0-.2753l-.8391 2.5643z"/><path d="m52.445 32.6697c-.1569.0103-.3142-.0116-.4624-.0645-.1482-.0528-.2841-.1354-.3995-.2428-.2165-.2767-.3194-.6264-.2873-.9771-.0113-.2583.042-.5154.155-.7477.0938-.1847.2441-.3342.4287-.4266.1994-.0949.4179-.142.6384-.1376.1535-.0029.3068.0141.456.0505.1147.0284.2262.0684.3329.1192l-.2006.5276c-.1095-.0413-.2052-.078-.301-.1055-.0887-.0272-.1809-.0411-.2736-.0413-.3557 0-.529.2523-.529.7568-.0143.195.0336.3895.1368.5551.0457.06.1054.1077.1738.1389.0684.0313.1434.045.2184.04.1283.002.256-.0165.3785-.0551.112-.0414.2191-.0952.3192-.1605v.5826c-.1013.0656-.212.1152-.3283.1468-.1498.0325-.3029.0463-.456.0412z"/><path d="m55.7695 32.6239v-3.2753h.6886v2.7019h1.3225v.5734z"/><path d="m62.2766 32.6239-.2371-.7799h-1.1675l-.2371.7799h-.7433l1.1492-3.289h.8436l1.1537 3.289zm-.4013-1.3762-.2371-.7615c0-.0504-.0365-.1192-.0593-.1972s-.0502-.1606-.073-.2431c-.0228-.0826-.0456-.156-.0593-.2156 0 .0596-.0365.1376-.0638.2293-.0274.0918-.0502.1744-.073.2569l-.0501.1697-.2326.7615z"/><path d="m66.3167 29.3486c.3442-.0258.6876.0593.9804.2431.109.0877.195.2008.2506.3295s.0792.2691.0686.4091c.0016.1364-.028.2714-.0866.3945-.0533.1099-.1295.2069-.2235.2844-.0903.0752-.19.1384-.2964.188l.9577 1.4267h-.7661l-.7753-1.2569h-.3693v1.2569h-.6886v-3.2753zm-.0502.5688h-.2097v.8854h.2234c.1707.0157.3419-.0245.4879-.1147.0506-.0401.0907-.0919.117-.1511.0262-.0591.0377-.1238.0335-.1884.0056-.0644-.0063-.1291-.0344-.1873-.0281-.0581-.0714-.1075-.1252-.143-.1521-.0775-.3223-.1124-.4925-.1009z"/><path d="m72.1906 32.6239h-1.8742v-3.2753h1.8742v.5688h-1.1856v.7202h1.1036v.5688h-1.1036v.8441h1.1856z"/><path d="m77.6946 32.6239h-.8619l-1.4182-2.4771v.4587.4587 1.5413h-.6157v-3.2569h.871l1.4137 2.4542c0-.1514 0-.2982 0-.4588 0-.1605 0-.3027 0-.4587v-1.5367h.6202z"/><path d="m17.3406 38.5872h-.6795v-3.2752h1.8652v.5688h-1.1857v.844h1.1218v.5688h-1.1218z"/><path d="m24.0582 36.945c.0076.3053-.05.6088-.1688.8899-.104.2452-.2828.4509-.5107.5871-.2651.1507-.5668.2238-.871.211-.298.0084-.5927-.0645-.8528-.211-.2258-.1407-.4039-.3471-.5107-.5917-.115-.2821-.1709-.5851-.1642-.8899-.0067-.3034.0492-.6049.1642-.8854.1056-.243.2842-.4467.5107-.5825.2684-.1508.5731-.2238.8802-.211.3042-.0128.6059.0603.871.211.2265.1365.4039.3422.5061.5871.111.2813.1607.5832.146.8854zm-2.3759 0c-.0161.2842.0522.5668.1961.8119.07.1002.165.1801.2755.2317.1105.0515.2325.0728.3538.0619.1219.0108.2446-.0105.3558-.062.1111-.0515.207-.1314.2781-.2316.1401-.2465.2066-.5284.1915-.8119.0152-.2821-.0513-.5626-.1915-.8074-.0698-.1007-.1647-.1813-.2751-.2336s-.2326-.0746-.3542-.0646c-.1224-.0103-.2453.0117-.3565.0641-.1112.0523-.2069.133-.2774.2341-.1438.2435-.2121.5246-.1961.8074z"/><path d="m27.6194 35.3119c.3442-.0258.6876.0593.9805.2432.1089.0876.1949.2007.2505.3294.0557.1287.0792.2692.0687.4091.0036.1366-.0261.2721-.0867.3945-.0532.1099-.1294.2069-.2234.2844-.0904.0752-.19.1384-.2964.1881l.9576 1.4266h-.7752l-.7753-1.2569h-.3693v1.2569h-.6795v-3.2753zm-.0365.5689h-.2097v.8853h.2097c.1707.0158.3419-.0245.488-.1147.0506-.0401.0907-.0919.1169-.151.0262-.0592.0377-.1238.0336-.1885.0055-.0644-.0064-.1291-.0345-.1873-.0281-.0581-.0714-.1075-.1251-.1429-.1481-.0752-.3132-.11-.4789-.1009z"/><path d="m32.9953 38.5872-.7843-2.5688v.2752.3945.3761 1.523h-.5928v-3.2752h.9394l.7706 2.5045.8163-2.5045h.9394v3.2752h-.6293v-1.5505c0-.1055 0-.2247 0-.3578 0-.133 0-.2614 0-.3807s0-.2156 0-.2752l-.8391 2.5642z"/><path d="m40.5065 35.312v2.1192c.0014.2149-.052.4265-.155.6147-.1046.1872-.2638.3377-.4561.4312-.2346.1121-.4928.1656-.7524.156-.3587.0243-.7126-.0943-.985-.3303-.1137-.1154-.2025-.2532-.2606-.4048-.058-.1516-.0842-.3137-.0768-.476v-2.11h.7068v2.0045c-.021.2053.0378.4108.1642.5734.1352.1161.3106.1738.4879.1606.0894.0084.1796-.0033.264-.0343.0843-.0309.1608-.0803.2239-.1446.117-.1617.1721-.3604.1551-.5596v-2z"/><path d="m43.2422 38.5872v-3.2752h.6886v2.7018h1.3224v.5734z"/><path d="m49.7499 38.5872-.2371-.7798h-1.1857l-.2234.7798h-.757l1.1491-3.289h.8437l1.1537 3.289zm-.4013-1.3762-.2371-.7614c0-.0505-.0365-.1193-.0593-.1973s-.0502-.1605-.073-.2431-.0456-.156-.0593-.2156c0 .0596-.0364.1376-.0638.2294-.0274.0917-.0502.1743-.073.2568l-.0501.1698-.2326.7614z"/><path d="m57.8401 38.5872h-1.8743v-3.2752h1.8743v.5688h-1.1857v.7201h1.1036v.5689h-1.1036v.844h1.1857z"/><path d="m64.835 38.5872h-.6886v-2.6973h-.8847v-.5779h2.458v.5779h-.8847z"/><path d="m70.0341 38.5872h-1.8652v-3.2752h1.8743v.5688h-1.1857v.7201h1.1036v.5689h-1.1036v.844h1.1857z"/><path d="m74.6435 38.5872-.2372-.7798h-1.1856l-.2372.7798h-.7433l1.1492-3.289h.8436l1.1538 3.289zm-.4013-1.3762-.2372-.7614c0-.0505-.0365-.1193-.0593-.1973s-.0501-.1605-.0729-.2431-.0456-.156-.0593-.2156c0 .0596-.0365.1376-.0638.2294-.0274.0917-.0502.1743-.073.2568l-.0502.1698-.2325.7614z"/><path d="m79.1132 38.5872-.7844-2.5688v.2752.3945.3761 1.523h-.5837v-3.2752h.9121l.7706 2.5045.8163-2.5045h.9394v3.2752h-.6111v-1.5505c0-.1055 0-.2247 0-.3578 0-.133 0-.2614 0-.3807s0-.2156 0-.2752l-.839 2.5642z"/></g></g></g></svg>