<svg width="100" height="40" fill="none" xmlns="http://www.w3.org/2000/svg"><path fill="#fff" d="M0 0h100v40H0z"/><g clip-path="url(#a)"><path d="m71.666 6.287-42.5.002V27.56l21.261 12.442 21.24-12.436V6.287Z" fill="#000"/><path d="M53.353 23.688v1.342a.541.541 0 0 0 .152.377.52.52 0 0 0 .369.158h3.762v-.53h-3.69a.07.07 0 0 1-.047-.019.072.072 0 0 1-.022-.045v-1.209a.086.086 0 0 1 .029-.053.083.083 0 0 1 .056-.02h3.675v-.53H53.89a.521.521 0 0 0-.372.155.541.541 0 0 0-.156.378M52.211 24.135h-3.315a.082.082 0 0 1-.08-.05.086.086 0 0 1-.007-.032v-.36a.087.087 0 0 1 .054-.08.083.083 0 0 1 .033-.006h3.76v-.45h-3.848a.51.51 0 0 0-.365.16.528.528 0 0 0-.148.375v.36a.54.54 0 0 0 .147.378.52.52 0 0 0 .366.163h3.315a.082.082 0 0 1 .06.024.085.085 0 0 1 .027.06v.362a.086.086 0 0 1-.027.06.082.082 0 0 1-.06.023h-3.765v.449h3.853a.515.515 0 0 0 .37-.155.535.535 0 0 0 .155-.377v-.362a.54.54 0 0 0-.154-.377.521.521 0 0 0-.37-.157M47.159 24.31a.089.089 0 0 1-.022.06.085.085 0 0 1-.056.028h-3.335v-.721h3.327a.09.09 0 0 1 .063.028c.016.017.025.04.026.064l-.003.54Zm.018.43a.516.516 0 0 0 .357-.163.535.535 0 0 0 .145-.37v-.523a.54.54 0 0 0-.153-.375.52.52 0 0 0-.369-.155h-3.93v2.405h.52v-.633h2.895a.52.52 0 0 1 .37.157.54.54 0 0 1 .154.378v.095h.522a.905.905 0 0 0-.138-.48.882.882 0 0 0-.37-.33M42.084 24.943a.091.091 0 0 1-.025.06.088.088 0 0 1-.058.029h-3.178a.07.07 0 0 1-.046-.02.072.072 0 0 1-.022-.046v-1.208a.084.084 0 0 1 .028-.053.081.081 0 0 1 .056-.02h3.149a.09.09 0 0 1 .063.027c.017.017.026.04.027.064l.006 1.167Zm0-1.789h-3.321a.516.516 0 0 0-.372.156.537.537 0 0 0-.155.378v1.342a.541.541 0 0 0 .156.376.523.523 0 0 0 .37.154h3.319a.51.51 0 0 0 .368-.155.53.53 0 0 0 .152-.376v-1.343a.535.535 0 0 0-.15-.374.515.515 0 0 0-.364-.158M37.102 24.31a.089.089 0 0 1-.022.06.085.085 0 0 1-.056.028h-3.326v-.721h3.315a.09.09 0 0 1 .062.027c.017.018.026.04.026.064v.541Zm0-1.156h-3.924v2.406h.52v-.634h3.4a.514.514 0 0 0 .37-.155.533.533 0 0 0 .154-.376v-.71a.54.54 0 0 0-.154-.377.517.517 0 0 0-.37-.154M67.656 23.605v-.45H63.05v2.407h4.605v-.45H63.57v-.53h4.085v-.448H63.57v-.529h4.085ZM61.918 24.13h-3.156v-.979h-.519v2.406h.519v-.898h3.156v.898h.52v-2.406h-.52v.98ZM58.086 14.689c-.08.199-.218.368-.393.488-.176.119-.383.182-.594.18-.688 0-.791-.541-.791-.865v-2.119h-.59v2.036c0 1.375 1.012 1.477 1.323 1.477.388.008.765-.14 1.05-.409v.327h.599v-3.431h-.59l-.014 2.316ZM65.406 12.741c-.015-.018-.381-.432-.853-.432-.416 0-.822.408-1.05.692v-.628h-.6v3.437h.599v-2.053c.15-.263.578-.862.932-.862.3 0 .6.341.61.344l.362-.498ZM53.638 12.309c-.927 0-1.626.704-1.626 1.775 0 .738.49 1.795 1.8 1.795.494.005.974-.166 1.358-.483l.034-.034v-.698l-.183.179a1.864 1.864 0 0 1-1.168.481c-.724 0-1.23-.43-1.23-1.222h2.647v-.125c0-.846-.511-1.668-1.633-1.668m-.93 1.245a.904.904 0 0 1 .342-.509.876.876 0 0 1 .583-.166c.706 0 .9.433.958.675h-1.884ZM60.803 12.309c-.927 0-1.626.704-1.626 1.775 0 .738.489 1.795 1.8 1.795.494.005.974-.166 1.358-.483l.034-.034v-.698l-.183.179a1.864 1.864 0 0 1-1.168.481c-.724 0-1.229-.43-1.229-1.222h2.643v-.125c0-.846-.511-1.668-1.633-1.668m-.926 1.245a.904.904 0 0 1 .342-.51.875.875 0 0 1 .583-.165c.706 0 .9.433.958.675h-1.883ZM50.96 13.552h-2.203V11.85h-.592v3.953h.592v-1.718h2.203l-.002 1.718h.593V11.85h-.593l.002 1.703ZM40.638 14.318l.559-1.487.6 1.48-1.16.007Zm1.108-2.463H40.61l-1.591 3.961h1.05l.3-.777h1.733l.319.777h1.05l-1.726-3.96ZM37.816 15.792V12.57h1.398v-.75h-3.785v.75h1.396v3.222h.991ZM47.148 15.752c-.762.172-1.74.224-2.445-.107-.6-.269-.975-.916-1.05-1.538-.047-.362.003-.73.145-1.064.142-.335.37-.624.662-.836.707-.515 1.829-.5 2.6-.141v.785c-.584-.273-1.46-.434-2.02 0a1.272 1.272 0 0 0-.384.537 1.295 1.295 0 0 0 .204 1.267c.142.174.326.306.534.384.283.086.58.112.874.074v-.64h-.384v-.763h1.261v2.046l.003-.004Z" fill="#fff"/><path d="M49.952 19.145H42.37v.714h7.582v-.715Z" fill="#007E53"/><path d="M58.464 19.145H50.88v.714h7.583v-.715Z" fill="#D5001C"/><path d="m71.666 0-42.5.002v5.332l42.5.006V0Z" fill="#000"/><path d="M37.42 1.468h1.376v.419h-.922v.585h.842v.39h-.842v1.01h-.45l-.003-2.404Zm1.674 1.196c0-.984.213-1.237.912-1.237.698 0 .911.253.911 1.237 0 .946-.178 1.25-.911 1.25-.733 0-.912-.304-.912-1.25Zm1.35-.008c0-.695-.056-.81-.438-.81-.383 0-.438.115-.438.81 0 .795.057.885.438.885.38 0 .438-.09.438-.885Zm.868-1.188h.851c.494 0 .72.179.72.773 0 .446-.134.652-.399.716l.468.917h-.5l-.406-.834h-.285v.834h-.45V1.468Zm.45.419v.763h.338c.23 0 .312-.035.312-.39 0-.323-.08-.37-.325-.37l-.326-.003Zm1.515 1.985.107-2.404h.536l.5 1.6.478-1.6h.537l.12 2.404h-.438l-.073-1.58-.488 1.583h-.309l-.493-1.584-.066 1.584-.41-.003Zm2.71-2.404h.45v1.64c0 .329.116.433.394.433.277 0 .395-.104.395-.432V1.468h.45v1.631c0 .537-.225.815-.845.815-.621 0-.849-.278-.849-.815l.005-1.631Zm2.178 0h.45v2.033h.908v.371h-1.362l.004-2.404Zm2.351 0h.56l.683 2.404h-.468l-.126-.458h-.791l-.123.458h-.419l.684-2.404Zm-.036 1.564h.577l-.292-1.07-.285 1.07Zm2.35-1.564h1.398v.419h-.944v.585h.865v.39h-.865v.64h.944v.37H52.83V1.468Zm2.377 0h1.65v.419h-.6v1.985h-.45V1.887h-.6v-.419Zm2.026 0h1.399v.419h-.945v.585h.867v.39h-.865v.64h.944v.37h-1.399l-.001-2.404Zm2.399 0h.56l.683 2.404h-.468l-.126-.458h-.791l-.123.458h-.419l.684-2.404Zm-.038 1.564h.585l-.3-1.07-.285 1.07Zm1.593.84.105-2.404h.533l.501 1.6.479-1.6h.536l.119 2.404h-.438l-.073-1.58-.488 1.583h-.309l-.493-1.584-.066 1.584-.406-.003Z" fill="#fff"/></g><defs><clipPath id="a"><path fill="#fff" transform="translate(29.166)" d="M0 0h42.5v40H0z"/></clipPath></defs></svg>