<?xml version="1.0" encoding="UTF-8"?>
<svg id="Capa_1" data-name="Capa 1" xmlns="http://www.w3.org/2000/svg" viewBox="0 0 595.28 841.89">
  <defs>
    <style>
      .cls-1 {
        fill: #fff;
      }
    </style>
  </defs>
  <path class="cls-1" d="M451.54,430.73c1.94,1.94-1.62,6.37-2.95,7.88-12.77,14.5-41.07,29.59-60.02,19.58-10.5-5.55-15-17.84-12.63-29.21,5.34-25.67,46.81-44.2,70.27-47.29,9.96-1.31,19.59-.65,13.36,12.14-7.82,16.05-33.42,34.06-51.38,34.93-2.52.12-11.72.2-10.6-4.1.83-3.2,5.48-2.55,7.94-2.88,12.88-1.73,26.22-11.58,35-20.77,1.32-1.38,8.58-9.61,8.16-11.03-.27-.9-3.63.16-4.42.35-15.58,3.84-41.35,16.6-50.7,29.84-4.58,6.49-6.82,14.59-1.27,21.32,10.69,12.97,36.82,2.26,48.35-5.04,1.88-1.19,7.75-5.9,9.38-6.03.39-.03,1.23.04,1.5.31Z"/>
  <path class="cls-1" d="M274.1,408.09c-.45-.1-.57.25-.84.48-5.79,4.79-13.45,14.16-17.87,20.35-1.51,2.12-3.42,5.98-4.89,7.61-1.92,2.13-4.86,1.63-5.44-1.22-.62-3.03,1.02-10.28,1.75-13.52.89-3.98,2.15-7.86,3.25-11.77-4.13,4.99-7.56,10.6-10.86,16.18-.72,1.21-3.53,6.92-4.29,7.24-3.22,1.37-2.75-4.69-2.17-6.49,2.32-7.13,12.05-21.06,17.8-25.94,3.79-3.21,9.07-4.8,7.29,2.47-1.26,5.16-3.29,10.28-4.52,15.67-.21.9-.54,1.97-.48,2.89,5-6.58,10.33-13.1,16.84-18.25,2.85-2.25,8.18-6.14,11.78-6.49,2.49-.24,5.16.14,4.93,3.24-.15,2.11-6.3,11.47-7.74,14.14-3.3,6.11-6.25,12.48-8.62,19.02-1.34,3.69-2.25,7.95-3.66,11.48-.87,2.19-2.34,3.28-4.03,1.01-2.22-2.97-.53-8.99.42-12.31,2.59-9.07,7.27-17.35,11.37-25.76Z"/>
  <path class="cls-1" d="M236.26,440.6c1.16,1.27-.06,2.54-1.41,2.89-4.41,1.14-12.55-3.37-16.47-5.56-4.59-2.55-9.04-5.47-13.19-8.69l-6.41,13.3c-2.16,2.13-3.63-.45-3.82-2.6-.38-4.23,4.35-13.62,6.3-17.76,1.8-3.82,3.84-7.55,5.74-11.32l-.12-.36c-1.67.81-3.85,2-5.61.92-.57-2.86,2.46-4.75,4.55-6.07,3.92-2.47,8.59-4.3,13.16-5.11s14.28-1.67,17.32,2.73c3.35,4.85-1.89,9.91-5.38,12.81-5.12,4.26-11.11,7.31-16.95,10.46,5.04,4.4,10.84,8.17,16.67,11.45,1.21.68,4.92,2.15,5.62,2.91ZM208.2,422.51l9.12-5.18c2.29-1.56,4.78-2.86,6.97-4.57,1.57-1.22,7.63-6.18,2.73-7.01-3.36-.57-8.32,1.41-11.54,2.41l-7.28,14.34Z"/>
  <path class="cls-1" d="M150.23,416.98c2.23-.27,4.42-.87,6.65-1.17,2.06-.27,5.43-.74,7.36-.21,2.23.61,2.08,3.01.01,3.97-4.12,1.9-10.6,2.66-15.16,4.31-3.21,1.16-3.31,2.39-4.91,5.19-2.89,5.06-5.31,10.78-8.34,15.7-.32.52-.73,1.33-1.3,1.58-1.51.65-2.92-.08-3.25-1.68-.57-2.74,2.09-9.08,3.2-11.83,3.32-8.24,7.66-16.13,11.9-23.91-2,.11-7.35,1.39-6.38-2.29,1.25-4.71,12.24-6.63,16.48-7.56,9.22-2.04,19.76-3.57,29.22-3,1.72.1,8.43.76,6.48,3.83-1.29,2.03-7.24,1.67-9.61,1.94-6.39.72-12.86,1.59-19.13,3-1.76.4-5.16,1.02-6.66,1.75-.32.15-.57.38-.79.65l-5.77,9.73Z"/>
  <path class="cls-1" d="M322.14,395.88c.61-.12,1.18-.01,1.62.43.81,1.37-1.35,6.13-2,7.61-5,11.33-18.91,34.47-30.18,39.77-5.46,2.56-12.11,1.94-12.68-5.2-.68-8.54,6.14-21.94,11.12-28.8,1.63-2.24,5.75-7.84,8.86-7.02s.89,5.58.04,7.5c-3.46,7.74-8.63,15.04-11.35,23.26-.82,2.48-2.28,7.12,2.24,4.64,6.26-3.43,16.22-18.5,20.37-24.82,3.14-4.77,6.43-11.47,9.75-15.73.48-.62,1.44-1.51,2.21-1.65Z"/>
  <path class="cls-1" d="M349.19,422.8c3.65-1.54,6.23,3.55,6.92,6.43.06.07.3-.13.36-.24.85-1.51,1.04-5.98,2.04-7.82l5.05-13.81c-.19-.21-1.85,1.13-2.14,1.35-5.14,3.91-10.39,9.22-15.18,13.67-2.22,2.06-5.27,6.03-8.35,6.55-7.22,1.23,1.49-8.21,2.94-9.8,5.69-6.24,20.5-19.8,28.31-22.17,3.33-1.01,7.14.12,5.67,4.22-1.09,3.05-3.63,6.9-5.04,10.1-3.03,6.87-5.52,14.38-7.1,21.74-.73,3.42-.97,7.7-1.87,10.86-.57,2-2.04,3.52-4.28,3.06-3.41-.7-3.14-7.02-3.58-9.64-.5-3.06-1.1-6.16-2.25-9.04-.7-1.75-2.48-3.57-1.5-5.47Z"/>
  <path class="cls-1" d="M189.13,407.19c2.98-.51,5.28,1.53,6.26,4.2,5.12,13.99-16.89,40.33-30.09,30.54-9.69-7.19,2.87-25.34,10.59-29.94,3.98-2.38,6.17-2.11,10.13-3.33,1.09-.34,1.92-1.26,3.11-1.46ZM188.23,413.14c-6.96,1.36-12.72,7.39-16.15,13.29-2.47,4.24-7.02,15.11,2.85,10.05,7.74-3.97,14.77-14.47,13.3-23.35Z"/>
  <path class="cls-1" d="M321.24,437.64c6.43-2.48,13.86-4.15,20.81-3.61,1.54.12,4.14.46,3.35,2.64s-5.57,2.07-7.61,2.48c-5.99,1.21-11.18,4.07-16.84,5.52-4.41,1.13-9.8.71-10.05-5-.27-6.25,10.87-21.41,14.82-26.75,2.54-3.44,9.23-13.1,13.07-14.09,2.37-.61,3.55.07,2.45,2.45-1.46,3.19-5.73,8.28-7.84,11.63-4.82,7.68-9.59,16.01-12.16,24.73Z"/>
</svg>